<svg width="1069" height="472" viewBox="0 0 1069 472" fill="none" xmlns="http://www.w3.org/2000/svg">
<rect x="524.634" y="454.706" width="18" height="18" transform="rotate(-30 524.634 454.706)" stroke="#E56D6E" stroke-width="2"/>
<circle cx="278.928" cy="342" r="9" transform="rotate(30 278.928 342)" stroke="#E56D6E" stroke-width="2"/>
<path d="M1040.17 27.0718L1040.17 25.3398L1038.67 26.2058L1022.67 35.4434L1021.17 36.3094L1022.67 37.1754L1038.67 46.413L1040.17 47.2791L1040.17 45.547L1040.17 27.0718Z" stroke="#E56D6E" stroke-width="2"/>
<rect x="10.634" y="221.706" width="18" height="18" transform="rotate(30 10.634 221.706)" stroke="#99C661" stroke-width="2"/>
<circle cx="794.928" cy="342" r="9" stroke="#99C661" stroke-width="2"/>
<path d="M1040.17 427.072L1040.17 425.34L1038.67 426.206L1022.67 435.443L1021.17 436.309L1022.67 437.175L1038.67 446.413L1040.17 447.279L1040.17 445.547L1040.17 427.072Z" stroke="#99C661" stroke-width="2"/>
<rect x="782.634" y="122.706" width="18" height="18" transform="rotate(-30 782.634 122.706)" stroke="#9ECCD6" stroke-width="2"/>
<circle cx="37.9282" cy="434" r="9" stroke="#9ECCD6" stroke-width="2"/>
<path d="M536.3 18.5L537.166 20L538.032 18.5L547.269 2.5L548.135 1H546.403L527.928 1H526.196L527.062 2.5L536.3 18.5Z" stroke="#9ECCD6" stroke-width="2"/>
<rect x="25.634" y="30.7058" width="18" height="18" transform="rotate(-30 25.634 30.7058)" stroke="#EA9959" stroke-width="2"/>
<circle cx="1058.93" cy="234" r="9" stroke="#EA9959" stroke-width="2"/>
<path d="M275.666 118.206L274.166 117.34L274.166 119.072L274.166 137.547L274.166 139.279L275.666 138.413L291.666 129.175L293.166 128.309L291.666 127.443L275.666 118.206Z" stroke="#EA9959" stroke-width="2"/>
</svg>
