<svg width="244" height="66" viewBox="0 0 244 66" fill="none" xmlns="http://www.w3.org/2000/svg">
<path d="M243.723 12.067C243.695 11.9845 243.668 11.8744 243.64 11.7918C222.202 11.7918 200.791 11.7918 179.353 11.7918C179.298 11.8468 179.27 11.9294 179.243 12.012C179.243 28.6343 179.243 45.2566 179.243 61.8789C179.38 62.7596 179.876 63.5577 180.509 64.1906C180.536 64.1906 180.591 64.2181 180.619 64.2181C180.949 64.5759 181.444 64.741 181.885 64.9062C182.215 64.8786 182.545 65.0438 182.875 64.9887C191.737 64.9887 200.598 64.9887 209.488 64.9887C209.735 64.9887 210.01 65.0162 210.258 64.9337C210.258 64.9062 210.286 64.8236 210.286 64.7961C210.286 64.741 210.313 64.6585 210.313 64.6034C210.891 61.4111 211.442 58.2187 212.047 55.0263C212.074 54.8887 212.074 54.7511 212.102 54.6135C209.653 54.6135 207.176 54.6135 204.699 54.6135C204.094 54.586 203.488 54.6135 202.883 54.531C201.864 54.4759 200.819 54.531 199.8 54.4209C198.534 54.4209 197.269 54.3108 196.003 54.3108C195.012 54.2007 193.994 54.2558 193.003 54.2007C192.342 54.1182 191.682 54.1457 191.021 54.1182C189.948 54.0081 188.847 54.0906 187.774 53.953C186.646 53.953 185.49 53.8705 184.361 53.843L184.389 53.7879C184.774 53.7879 185.132 53.7604 185.517 53.7604C186.37 53.6503 187.196 53.7329 188.049 53.5953C188.93 53.5953 189.783 53.4852 190.664 53.4852C191.434 53.3751 192.232 53.4301 193.003 53.3201C193.911 53.3201 194.819 53.21 195.727 53.1825C196.47 53.0724 197.241 53.1274 197.984 53.0449C198.865 53.0449 199.718 52.9073 200.598 52.9348C201.452 52.8247 202.332 52.8522 203.185 52.7697C203.103 52.4394 203.048 52.1092 202.965 51.7789C202.91 51.5588 202.635 51.6138 202.497 51.5863C200.543 51.3111 198.59 51.0359 196.636 50.7607C196.773 50.6506 196.938 50.7056 197.076 50.6781C198.589 50.568 200.103 50.4304 201.617 50.3203C201.975 50.2928 202.305 50.2378 202.635 50.2378C202.47 49.7699 202.387 49.2471 202.195 48.8067C198.947 48.3114 195.7 47.871 192.452 47.3206C193.306 47.183 194.131 47.128 194.984 47.0179L195.067 46.9904C197.764 46.7152 200.461 46.3849 203.13 46.1372C206.543 46.1097 209.955 46.1372 213.368 46.1372C213.478 46.1097 213.671 46.1648 213.698 46.0272C213.973 44.5686 214.249 43.0825 214.524 41.6239C214.909 39.5874 215.515 37.5784 216.478 35.7345C217.964 32.7623 220.331 30.2029 223.22 28.5242C225.917 26.9555 229.027 26.185 232.109 26.0474C233.1 25.9648 234.118 25.9923 235.109 26.1024C235.77 26.2675 236.43 26.4327 236.953 26.873C237.366 27.2032 237.641 27.7261 237.834 28.2215C238.246 29.4324 238.494 30.6708 238.687 31.9367C238.687 32.4321 238.797 33.01 238.522 33.4779C238.274 33.9182 237.751 34.1384 237.283 34.276C235.549 34.7163 233.706 34.3035 231.972 34.7163C230.541 35.019 229.192 35.8171 228.284 36.973C227.211 38.3215 226.633 39.9727 226.33 41.6514C226.082 43.1375 225.78 44.6236 225.532 46.1097C227.238 46.1097 228.972 46.1097 230.706 46.1097C231.394 46.1097 232.109 46.495 232.385 47.128C232.742 47.9536 232.66 48.8893 232.55 49.7699C232.412 50.7607 232.164 51.7239 231.724 52.6321C231.366 53.4026 230.733 54.1182 229.908 54.3658C229.467 54.531 229 54.5034 228.532 54.5034C227.018 54.5034 225.504 54.531 223.963 54.5034C223.716 55.6043 223.55 56.7601 223.33 57.8885C222.945 60.0901 222.532 62.2917 222.147 64.4933C222.147 64.5759 222.119 64.7135 222.119 64.7961C222.835 64.8236 223.55 64.7961 224.266 64.8236C229.577 64.8236 234.889 64.8236 240.2 64.8236C240.778 64.8511 241.356 64.7135 241.852 64.4383C242.154 64.3282 242.319 64.0805 242.595 63.9154C242.842 63.7778 242.925 63.4751 243.145 63.2824C243.393 62.8696 243.613 62.4293 243.64 61.9339C243.668 61.9339 243.75 61.9339 243.778 61.9064C243.695 45.3667 243.723 28.7168 243.723 12.067Z" fill="url(#paint0_linear)" stroke="#FCD109" stroke-width="0.0938"/>
<path d="M187.664 1.14139C188.435 0.893702 189.233 1.05882 190.031 1.00378C204.809 1.00378 219.588 1.00378 234.366 1.00378C235.247 0.976264 236.017 1.47163 236.815 1.71931C237.476 1.99452 238.136 2.18716 238.797 2.46236C238.935 2.51741 239.045 2.62749 239.127 2.73757C239.127 3.92094 239.127 5.13184 239.127 6.34274C239.127 6.67298 239.072 6.97571 239.182 7.30595C239.375 7.33347 239.485 7.47107 239.595 7.60868C240.2 7.88388 240.696 8.32421 241.246 8.68197C242.072 9.2599 242.925 9.75527 243.723 10.3607C243.751 10.6084 243.723 10.8286 243.668 11.0487C243.585 11.2964 243.64 11.5716 243.613 11.8193C222.175 11.8193 200.764 11.8193 179.325 11.8193C179.27 11.5166 179.353 11.2138 179.243 10.9386C179.215 10.691 179.133 10.3882 179.38 10.2231C180.289 9.59014 181.252 9.01221 182.132 8.35173C182.683 7.99396 183.206 7.6362 183.756 7.27843C183.866 7.08579 183.839 6.86563 183.839 6.67298C183.839 5.352 183.839 4.05855 183.839 2.73757C184.141 2.35228 184.692 2.29724 185.105 2.1046C185.958 1.77435 186.811 1.44411 187.664 1.14139ZM187.719 1.27899C186.563 1.71931 185.407 2.15964 184.224 2.59997C184.059 2.62749 183.976 2.76509 183.894 2.87517C183.894 2.95773 183.921 3.06781 183.921 3.15037C183.921 4.22367 183.921 5.32448 183.921 6.39778C183.921 6.67298 183.894 6.94819 184.004 7.19587C183.894 7.30595 183.756 7.44355 183.619 7.52611C182.298 8.37925 181.032 9.28742 179.738 10.1406C179.518 10.2782 179.27 10.4708 179.325 10.746C179.27 10.9111 179.353 11.0487 179.545 10.9937C182.38 10.9662 185.215 11.0212 188.049 10.9662C192.287 10.9662 196.498 10.9662 200.709 10.9662L200.764 10.9386C200.956 10.9937 201.149 10.9662 201.342 10.9662C208.992 10.9662 216.643 10.9662 224.321 10.9662C226.715 10.9662 229.137 10.9662 231.559 10.9662C235.549 10.9662 239.54 10.9937 243.503 10.9937C243.613 10.9662 243.668 10.8836 243.613 10.746C243.613 10.6084 243.668 10.4158 243.503 10.3057C242.87 10.0029 242.32 9.5351 241.714 9.17734C241.494 8.98469 241.219 8.90213 241.054 8.65445C240.421 8.29669 239.843 7.85636 239.237 7.47107C239.127 7.38851 239.017 7.27843 238.935 7.16835C238.99 6.97571 239.017 6.78306 239.017 6.5629C239.017 5.40704 239.017 4.25119 239.017 3.12285C239.045 2.93021 239.045 2.73757 238.879 2.62749C237.806 2.2422 236.705 1.8294 235.632 1.41659C235.302 1.25147 234.917 1.16891 234.559 1.11387C219.147 1.11387 203.736 1.11387 188.324 1.11387C188.104 1.14139 187.912 1.22395 187.719 1.27899Z" fill="#F8F3B5" stroke="#F8F3B5" stroke-width="0.0938"/>
<path d="M183.949 3.15039C184.747 3.48064 185.6 3.67328 186.398 4.00352C186.838 4.16865 186.976 4.63649 187.169 5.02178C186.976 5.21442 186.756 5.35202 186.536 5.51714C185.71 6.06755 184.857 6.61796 184.031 7.19589C183.921 6.9482 183.976 6.673 183.949 6.3978C183.949 5.3245 183.921 4.22369 183.949 3.15039Z" fill="#F7B402" stroke="#F7B402" stroke-width="0.0938"/>
<path d="M236.568 4.00352C237.366 3.67328 238.219 3.48064 239.017 3.15039C239.017 4.30625 239.017 5.4621 239.017 6.59044C239.017 6.78308 238.99 7.00325 238.934 7.19589C238.219 6.70052 237.503 6.23267 236.815 5.76483C236.485 5.51714 236.1 5.3245 235.797 5.02178C235.962 4.63649 236.127 4.16865 236.568 4.00352Z" fill="#F7B402" stroke="#F7B402" stroke-width="0.0938"/>
<path d="M197.736 4.36126C198.727 4.11358 199.855 5.02175 199.773 6.04001C199.773 7.05826 198.699 7.88387 197.709 7.66371C197.323 7.52611 196.938 7.33346 196.69 6.9757C196.36 6.50785 196.305 5.84736 196.553 5.32448C196.745 4.82911 197.241 4.49887 197.736 4.36126Z" fill="#BDA727" stroke="#BDA727" stroke-width="0.0938"/>
<path d="M223.55 4.93919C223.963 4.47134 224.624 4.22366 225.229 4.38878C225.697 4.52638 226.137 4.82911 226.33 5.26944C226.715 6.04001 226.412 7.08578 225.642 7.49859C224.954 7.88387 224.073 7.69123 223.55 7.14082C223.055 6.53537 223.027 5.54464 223.55 4.93919Z" fill="#BDA727" stroke="#BDA727" stroke-width="0.0938"/>
<path d="M186.508 5.5171C186.728 5.37949 186.948 5.21437 187.141 5.02173L187.196 5.07677C187.251 5.54462 187.224 6.03998 187.224 6.50783C187.196 7.91137 187.251 9.34243 187.196 10.746C184.554 10.746 181.94 10.7185 179.298 10.746C179.215 10.4432 179.49 10.2781 179.711 10.1405C181.031 9.28739 182.297 8.37922 183.591 7.52609C183.728 7.44352 183.866 7.30592 183.976 7.19584C184.829 6.61791 185.682 6.0675 186.508 5.5171Z" fill="#F7E62D" stroke="#F7E62D" stroke-width="0.0938"/>
<path d="M235.687 5.32451C235.687 5.21443 235.715 5.10434 235.77 4.99426C236.072 5.29699 236.458 5.48963 236.788 5.73731C237.503 6.20516 238.219 6.67301 238.907 7.16837C239.017 7.27846 239.099 7.38854 239.21 7.4711C239.815 7.85638 240.393 8.29671 241.026 8.65447C241.191 8.90216 241.466 8.98472 241.686 9.17736C242.292 9.53513 242.842 10.003 243.475 10.3057C243.64 10.3883 243.585 10.6084 243.585 10.746C240.943 10.746 238.329 10.746 235.687 10.746C235.632 10.3883 235.659 10.0305 235.659 9.67273C235.715 8.21415 235.687 6.78309 235.687 5.32451Z" fill="#F7E62D" stroke="#F7E62D" stroke-width="0.0938"/>
<path d="M243.613 10.746C240.971 10.746 238.356 10.746 235.714 10.746C235.659 10.3883 235.687 10.0305 235.687 9.67273C235.687 8.21415 235.659 6.78309 235.687 5.32451C235.687 5.21443 235.714 5.10435 235.769 4.99427C235.962 4.60898 236.1 4.14113 236.54 3.97601C237.338 3.64577 238.191 3.45312 238.989 3.12288C239.017 2.93024 239.017 2.73759 238.852 2.62751C237.778 2.24223 236.677 1.82942 235.604 1.41662C235.274 1.25149 234.889 1.16893 234.531 1.11389C219.119 1.11389 203.708 1.11389 188.297 1.11389C188.104 1.11389 187.911 1.22397 187.719 1.27901C186.563 1.71934 185.407 2.15967 184.224 2.59999C184.059 2.62751 183.976 2.76512 183.893 2.8752C183.893 2.95776 183.921 3.06784 183.921 3.1504C184.719 3.48065 185.572 3.67329 186.37 4.00353C186.811 4.16866 186.948 4.6365 187.141 5.02179L187.196 5.07683C187.251 5.54467 187.223 6.04004 187.223 6.50789C187.196 7.91143 187.251 9.34249 187.196 10.746C184.554 10.746 181.939 10.7185 179.298 10.746C179.242 10.9112 179.325 11.0488 179.518 10.9937C182.352 10.9662 185.187 11.0212 188.021 10.9662C192.26 10.9662 196.47 10.9662 200.681 10.9662L200.736 10.9387C200.929 10.9937 201.121 10.9662 201.314 10.9662C208.964 10.9662 216.615 10.9662 224.293 10.9662C226.688 10.9662 229.109 10.9662 231.531 10.9662C235.522 10.9662 239.512 10.9937 243.475 10.9937C243.64 10.9662 243.668 10.8836 243.613 10.746ZM196.553 5.32451C196.745 4.82914 197.213 4.47138 197.736 4.3613C198.727 4.11361 199.855 5.02179 199.773 6.04004C199.773 7.0583 198.699 7.88391 197.709 7.66374C197.323 7.52614 196.938 7.3335 196.69 6.97573C196.388 6.50789 196.305 5.8474 196.553 5.32451ZM223.55 4.93923C223.963 4.47138 224.624 4.2237 225.229 4.38882C225.697 4.52642 226.137 4.82914 226.33 5.26947C226.715 6.04004 226.412 7.08582 225.642 7.49862C224.954 7.88391 224.073 7.69127 223.55 7.14086C223.055 6.53541 223.027 5.54467 223.55 4.93923Z" fill="url(#paint1_radial)" stroke="#FCD109" stroke-width="0.0938"/>
<path d="M225.862 14.7089C226 14.7365 225.202 13.9659 225.367 13.9108C225.504 13.9384 226.055 13.498 226.715 13.8558C227.376 14.2136 227.211 15.0117 227.128 15.3144C227.046 15.6721 226.798 15.8923 226.633 16.085C226.523 16.1675 226.303 16.3051 226.165 16.2776C226.248 15.8373 225.972 15.7547 225.972 15.3144L225.862 14.7089Z" fill="url(#paint2_linear)" stroke="#FCD109" stroke-width="0.0938"/>
<path d="M196.938 15.2043C196.911 15.6447 196.663 15.7272 196.745 16.1675C196.608 16.1675 196.388 16.0575 196.278 15.9749C196.085 15.7823 195.865 15.5621 195.782 15.2043C195.7 14.9016 195.535 14.076 196.195 13.7458C196.856 13.388 197.406 13.8283 197.544 13.8008C197.709 13.8283 196.911 14.6264 197.048 14.5989L196.938 15.2043Z" fill="url(#paint3_linear)" stroke="#FCD109" stroke-width="0.0938"/>
<path d="M224.679 20.5157C224.816 20.4056 224.899 20.4056 225.092 20.4056C224.018 22.7449 222.752 25.1116 220.826 26.9555C220.633 27.1481 220.413 27.3133 220.193 27.4509C219.973 27.616 219.753 27.7536 219.56 27.9187C219.34 28.0563 219.147 28.2214 218.955 28.359C218.432 28.6342 217.991 29.0195 217.413 29.2122C216.368 29.7075 215.239 30.0378 214.111 30.2855C213.671 30.368 213.203 30.4781 212.762 30.4781C212.212 30.6432 211.607 30.5331 211.029 30.5607C210.698 30.6157 210.423 30.4231 210.12 30.4781C209.845 30.4506 209.598 30.3955 209.322 30.3405C209.047 30.2855 208.8 30.2304 208.524 30.1479C204.369 28.8544 200.296 25.6896 199.112 21.3964C199.057 21.1212 199.03 20.8184 199.03 20.5157C199.167 20.7634 199.277 21.0111 199.415 21.2588C201.094 24.9465 204.451 27.8361 208.414 28.7168C208.744 28.8544 209.075 28.7994 209.377 28.937C209.653 28.937 209.928 28.937 210.203 29.0195C211.139 29.047 212.074 29.0195 213.01 29.0195C213.148 29.0195 213.258 28.9645 213.368 28.937C214.909 28.8819 216.45 28.4691 217.854 27.8086C218.129 27.671 218.404 27.5334 218.679 27.3958C218.927 27.2582 219.147 27.1206 219.395 26.983C219.615 26.8454 219.835 26.6803 220.055 26.5152C221.734 25.1942 223.165 23.4604 224.156 21.4789C224.349 21.1487 224.541 20.8184 224.679 20.5157Z" fill="#BDA727" stroke="#BDA727" stroke-width="0.0938"/>
<path d="M223.22 28.5517C225.917 26.983 229.027 26.2125 232.109 26.0749C233.1 25.9923 234.118 26.0198 235.109 26.1299C235.77 26.295 236.43 26.4601 236.953 26.9005C236.678 26.928 236.43 26.7904 236.182 26.7629C235.439 26.6253 234.669 26.6803 233.926 26.6528C231.752 26.6528 229.55 26.8179 227.431 27.4234C226.33 27.7536 225.229 28.1389 224.211 28.7168C222.477 29.68 220.909 30.946 219.643 32.4596C217.386 35.0465 216.037 38.349 215.404 41.7064C215.102 43.4953 214.744 45.3116 214.469 47.1004C214.028 47.1555 213.561 47.128 213.093 47.128C211.111 47.128 209.102 47.1004 207.121 47.1004C206.708 47.128 206.268 47.0179 205.855 47.0454C202.222 47.0729 198.617 47.0454 194.984 47.0454L195.067 47.0179C197.764 46.7427 200.461 46.4124 203.13 46.1647C206.543 46.1372 209.955 46.1647 213.368 46.1647C213.478 46.1372 213.671 46.1923 213.698 46.0547C213.973 44.5961 214.249 43.11 214.524 41.6514C214.909 39.6149 215.542 37.6059 216.478 35.762C217.964 32.7623 220.331 30.2304 223.22 28.5517Z" fill="#0D69B3" stroke="#0D69B3" stroke-width="0.0938"/>
<path d="M227.431 27.4509C229.55 26.8454 231.724 26.6803 233.926 26.6803C234.669 26.7078 235.439 26.6528 236.182 26.7904C236.458 26.8179 236.705 26.9555 236.953 26.928C237.366 27.2582 237.641 27.7811 237.834 28.2765C238.246 29.4874 238.494 30.7258 238.687 31.9917C238.687 32.4871 238.797 33.065 238.522 33.5329C238.274 33.9732 237.751 34.1934 237.283 34.331C235.549 34.7713 233.706 34.3585 231.972 34.7713C230.541 35.074 229.192 35.8721 228.284 37.028C227.211 38.3765 226.633 40.0277 226.33 41.7064C226.082 43.1925 225.78 44.6786 225.532 46.1647C225.422 46.495 225.367 46.8527 225.284 47.2105C226.991 47.238 228.697 47.2105 230.403 47.238C231.064 47.2105 231.697 47.2655 232.357 47.2105C232.715 48.0361 232.632 48.9718 232.522 49.8525C232.385 50.8432 232.137 51.8064 231.697 52.7146C231.339 53.4851 230.706 54.2007 229.88 54.4484C229.44 54.6135 228.972 54.586 228.504 54.586C226.991 54.586 225.477 54.6135 223.936 54.586C223.688 55.6868 223.523 56.8426 223.303 57.971C222.918 60.1726 222.505 62.3742 222.119 64.5759C222.119 64.6584 222.092 64.796 222.092 64.8786C218.129 64.8786 214.194 64.8786 210.231 64.8786C210.231 64.8511 210.258 64.7685 210.258 64.741C210.258 64.6859 210.286 64.6034 210.286 64.5483C210.286 64.6309 210.313 64.7685 210.313 64.8235C210.561 64.8511 211.001 64.9887 211.056 64.6309C211.662 61.3009 212.24 57.9434 212.873 54.6135C212.625 54.5584 212.377 54.5584 212.13 54.6135C212.102 54.7511 212.047 54.8612 212.02 54.9988C212.047 54.8612 212.047 54.7236 212.075 54.586C209.625 54.586 207.148 54.586 204.672 54.586C204.066 54.5584 203.461 54.586 202.855 54.5034C201.837 54.4484 200.791 54.5034 199.773 54.3933C198.507 54.3933 197.241 54.2832 195.975 54.2832C194.984 54.1732 193.966 54.2282 192.975 54.1732C192.315 54.0906 191.654 54.1181 190.994 54.0906C189.921 53.9805 188.82 54.0631 187.747 53.9255C186.618 53.9255 185.462 53.8429 184.334 53.8154L184.362 53.7603C184.747 53.7603 185.105 53.7328 185.49 53.7328C186.343 53.6227 187.169 53.7053 188.022 53.5677C188.902 53.5677 189.756 53.4576 190.636 53.4576C191.407 53.3475 192.205 53.4026 192.975 53.2925C193.884 53.2925 194.792 53.1824 195.7 53.1549C196.443 53.0448 197.214 53.0999 197.957 53.0173C198.837 53.0173 199.69 52.8797 200.571 52.9072C201.424 52.7971 202.305 52.8247 203.158 52.7421C203.075 52.4119 203.02 52.0816 202.938 51.7514C202.883 51.5312 202.608 51.5862 202.47 51.5587C200.516 51.2835 198.562 51.0083 196.608 50.7331C196.746 50.623 196.911 50.6781 197.048 50.6505C198.562 50.5405 200.076 50.4029 201.589 50.2928C201.92 50.2653 202.277 50.2102 202.608 50.2102C202.442 49.7424 202.36 49.2195 202.167 48.7792C198.92 48.2838 195.672 47.8435 192.425 47.2931C193.278 47.1555 194.104 47.1004 194.957 46.9903C198.59 46.9903 202.195 47.0179 205.827 46.9903C206.24 46.9628 206.681 47.0729 207.093 47.0454C209.075 47.0729 211.084 47.0729 213.065 47.0729C213.506 47.0729 213.973 47.1004 214.441 47.0454C214.717 45.229 215.074 43.4402 215.377 41.6514C216.01 38.2939 217.358 34.9915 219.615 32.4045C220.881 30.8909 222.45 29.625 224.184 28.6618C225.229 28.1664 226.33 27.7811 227.431 27.4509Z" fill="#107BD4" stroke="#107BD4" stroke-width="0.0938"/>
<path d="M225.477 46.1647C227.183 46.1647 228.917 46.1647 230.651 46.1647C231.339 46.1647 232.054 46.55 232.33 47.183C231.669 47.238 231.036 47.183 230.376 47.2105C228.669 47.183 226.963 47.2105 225.257 47.183C225.312 46.8527 225.367 46.495 225.477 46.1647Z" fill="#0D69B3" stroke="#0D69B3" stroke-width="0.0938"/>
<path d="M212.157 54.641C212.405 54.586 212.652 54.586 212.9 54.641C212.267 57.971 211.689 61.3285 211.084 64.6584C211.029 65.0162 210.588 64.8786 210.341 64.8511C210.341 64.796 210.313 64.6584 210.313 64.5759C210.891 61.3835 211.442 58.1911 212.047 54.9988C212.075 54.8887 212.102 54.7786 212.157 54.641Z" fill="#0D69B3" stroke="#0D69B3" stroke-width="0.0938"/>
<path d="M226.275 14.9566C226.192 14.819 226.192 14.6539 226.192 14.5163H226.11C226 14.131 225.67 13.7457 225.229 13.7182C224.899 13.6907 224.486 13.6907 224.294 14.0209C223.936 14.5163 224.101 15.1218 224.073 15.6722C224.073 15.6997 224.073 15.7823 224.073 15.8098C224.073 16.1675 224.018 16.5528 223.963 16.9106C223.908 17.0207 223.881 17.1308 223.881 17.2684C223.716 18.1215 223.413 18.9471 223 19.7177C222.918 19.8277 222.863 19.9378 222.835 20.0754C222.56 20.5433 222.23 20.9836 221.899 21.4239C221.844 21.479 221.789 21.534 221.762 21.5891C221.514 21.8918 221.266 22.1119 221.019 22.3871C220.964 22.4147 220.909 22.4697 220.854 22.4972C220.551 22.7999 220.193 23.0752 219.835 23.2953C219.78 23.3228 219.753 23.3504 219.698 23.4054C217.386 24.9465 214.579 25.5795 211.827 25.607C209.515 25.6896 207.148 25.1942 205.057 24.176C205.029 24.1484 204.919 24.1209 204.892 24.0934C204.534 23.9008 204.176 23.7356 203.846 23.5155C203.763 23.488 203.708 23.4329 203.626 23.4054C203.296 23.2128 202.965 22.9926 202.663 22.7449C202.552 22.6623 202.442 22.5798 202.332 22.4972C202.002 22.222 201.672 21.9468 201.397 21.6441C201.314 21.5615 201.259 21.479 201.176 21.4239C200.186 20.4057 199.415 19.1397 199.002 17.7912C198.617 16.7179 198.672 15.5346 198.617 14.4062C198.287 13.9109 197.599 13.6357 197.048 13.9384C196.828 14.1035 196.801 14.4062 196.636 14.5989C196.36 17.5711 197.626 20.5708 199.663 22.7174C199.663 22.8 199.69 22.8275 199.773 22.855C200.131 23.1852 200.488 23.543 200.846 23.8457C200.901 23.9008 200.984 23.9833 201.066 24.0384C201.424 24.3411 201.809 24.6163 202.195 24.8915C202.277 24.9465 202.332 25.0016 202.415 25.0291C202.91 25.3318 203.378 25.6621 203.928 25.8547C203.956 25.8822 204.039 25.9373 204.066 25.9373C205.772 26.7629 207.644 27.3133 209.543 27.5059C209.763 27.5059 209.955 27.5335 210.176 27.561C211.084 27.616 211.992 27.5885 212.9 27.561C215.707 27.3133 218.569 26.6253 220.909 25.0016L220.936 25.0291C221.019 24.9741 221.074 24.919 221.156 24.864C221.514 24.5888 221.899 24.3136 222.257 24.0108C222.34 23.9558 222.422 23.8732 222.505 23.7907C222.89 23.3504 223.358 22.9651 223.688 22.4697L223.743 22.4972C223.771 22.4422 223.826 22.3596 223.853 22.3046C224.156 21.8918 224.431 21.4515 224.706 21.0111C224.734 20.9836 224.761 20.9286 224.789 20.901L224.761 20.8735C224.789 20.846 224.844 20.7634 224.872 20.7359C225.367 19.7177 225.807 18.6719 225.972 17.5436C226.027 17.516 226.082 17.461 226.082 17.406C226.082 17.0482 226.22 16.6904 226.192 16.3327C226.303 15.8648 226.303 15.4245 226.275 14.9566Z" fill="white" stroke="white" stroke-width="0.0938"/>
<path d="M196.03 14.6538C196.773 14.874 198.452 14.2961 198.92 14.8465" stroke="#D1D1D1" stroke-width="2"/>
<path d="M196.443 16.8828C197.158 16.6352 198.644 16.0572 199.277 16.3875" stroke="#D1D1D1" stroke-width="2"/>
<path d="M197.159 19.112C197.489 19.2221 198.177 18.6167 198.507 18.4515C199.003 18.2038 199.498 17.9837 200.048 17.9011" stroke="#D1D1D1" stroke-width="2"/>
<path d="M198.259 21.4788C198.617 20.9834 199.03 20.5706 199.525 20.2128C200.021 19.8551 201.397 18.9194 202.002 19.2496" stroke="#D1D1D1" stroke-width="2"/>
<path d="M199.278 23.1576C199.663 22.8549 199.828 22.277 200.268 21.9467C200.764 21.5339 201.534 21.4789 202.057 21.2312" stroke="#D1D1D1" stroke-width="2"/>
<path d="M200.984 24.4237C201.094 23.543 202.002 22.4972 202.828 22.5798" stroke="#D1D1D1" stroke-width="2"/>
<path d="M202.277 25.6344C202.718 25.5794 203.103 24.5886 203.406 24.2584C203.846 23.763 204.341 23.5979 204.919 23.4053" stroke="#D1D1D1" stroke-width="2"/>
<path d="M204.892 26.7351C204.864 26.1022 205.525 24.2858 206.268 24.3959" stroke="#D1D1D1" stroke-width="2"/>
<path d="M206.818 27.3408C206.791 26.5978 207.176 24.3411 208.084 24.2585" stroke="#D1D1D1" stroke-width="2"/>
<path d="M208.8 28.5241C208.635 27.4783 208.635 25.9647 209.46 25.1941" stroke="#D1D1D1" stroke-width="2"/>
<path d="M211.277 28.7719C211.194 27.8912 210.313 26.1299 211.277 25.4419" stroke="#D1D1D1" stroke-width="2"/>
<path d="M213.918 28.1662C213.506 27.6984 213.258 25.7995 213.423 25.2766" stroke="#D1D1D1" stroke-width="2"/>
<path d="M216.478 27.7534C216.148 27.1755 215.762 26.6251 215.652 25.9646C215.57 25.5518 215.707 25.0014 215.652 24.6711" stroke="#D1D1D1" stroke-width="2"/>
<path d="M218.57 26.8453C217.882 26.405 217.689 24.7263 217.909 24.0107" stroke="#D1D1D1" stroke-width="2"/>
<path d="M220.633 25.9373C220.138 24.8915 219.615 24.0659 219.615 22.855" stroke="#D1D1D1" stroke-width="2"/>
<path d="M222.615 24.0108C221.844 23.4879 220.881 22.5522 220.991 21.5339" stroke="#D1D1D1" stroke-width="2"/>
<path d="M224.734 22.3871C223.578 22.1394 222.175 21.0937 221.487 20.158" stroke="#D1D1D1" stroke-width="2"/>
<path d="M225.697 20.4056C224.872 20.213 222.092 19.1397 222.257 18.0664" stroke="#D1D1D1" stroke-width="2"/>
<path d="M226.605 18.2865C225.45 17.8462 223.743 17.4609 222.808 16.6628" stroke="#D1D1D1" stroke-width="2"/>
<path d="M227.211 16.3601C226.468 16.4151 225.422 16.0573 224.679 15.9472C223.854 15.8096 223.083 15.5344 222.257 15.3418" stroke="#D1D1D1" stroke-width="2"/>
<path d="M226.468 14.4886C225.037 14.5712 223.716 14.0758 222.422 13.6355" stroke="#D1D1D1" stroke-width="2"/>
<path d="M44.8883 18.8371C46.2092 18.6444 47.6953 18.5068 48.8237 19.3324C49.5117 19.8553 49.7594 20.791 49.7043 21.6442C49.7594 23.0202 49.0989 24.5063 47.8605 25.2218C46.7596 25.8273 45.4662 25.8548 44.2553 25.7447C43.4297 25.6346 42.6316 25.1943 42.1913 24.4512C41.2831 22.3046 42.4389 19.2499 44.8883 18.8371Z" fill="#107BD4" stroke="#107BD4" stroke-width="0.1009"/>
<path d="M5.6441 20.3783C5.72666 19.6352 6.38715 18.9748 7.15772 19.0023C12.882 19.0023 18.5512 19.0298 24.2479 19.0023C24.8533 18.9472 25.5413 19.2224 25.8441 19.7728C26.2569 20.5159 25.8991 21.3415 25.8441 22.0846C25.6789 23.1303 25.734 24.5064 24.4956 24.8916C20.34 25.0017 16.1844 24.8916 12.0288 24.9467C11.6435 27.5611 11.2583 30.1756 10.873 32.7625C10.873 32.8726 10.9005 33.0927 10.9005 33.1753C13.9553 33.1478 16.9825 33.1753 20.0373 33.1478C20.8904 33.0927 21.771 33.8082 21.6885 34.7164C21.6059 35.6246 21.4133 36.5328 21.3032 37.4409C21.1931 38.0464 20.6978 38.6243 20.0648 38.7619C16.6798 38.8445 13.2397 38.6794 9.85472 38.8445C9.30431 42.5872 8.67134 46.3025 8.09341 50.0453C8.01085 50.7883 7.43292 51.4213 6.68987 51.4488C5.28633 51.4763 3.88279 51.4763 2.45173 51.4488C1.54356 51.4763 0.800511 50.4581 1.04819 49.6049C2.5343 39.8627 4.10296 30.148 5.6441 20.3783Z" fill="#107BD4" stroke="#107BD4" stroke-width="0.1009"/>
<path d="M30.7979 19.0573C32.0913 18.9472 33.3848 19.0297 34.6782 19.0022C35.4763 18.9472 36.2744 19.5802 36.3295 20.3782C36.3295 21.0112 36.1643 21.6717 36.0818 22.3047C35.036 28.9371 33.9902 35.5695 32.9444 42.2019C32.8068 43.2752 32.5316 44.4035 32.8344 45.5043C33.1921 46.6052 34.8709 46.1098 35.2562 47.2656C35.5038 48.1738 35.2286 49.137 35.1461 50.0727C35.0635 51.3111 33.66 51.5863 32.6968 51.8615C30.6052 52.2468 28.0458 51.9716 26.5322 50.2378C25.4314 48.9719 25.3763 47.1831 25.5965 45.6144C26.9175 37.1932 28.2109 28.7995 29.5594 20.3507C29.642 19.7178 30.1374 19.1398 30.7979 19.0573Z" fill="#107BD4" stroke="#107BD4" stroke-width="0.1009"/>
<path d="M79.8943 20.3783C79.9768 19.6352 80.6373 19.0023 81.3804 19.0023C82.6463 19.0023 83.9123 19.0023 85.1507 19.0023C86.0864 18.9747 86.8569 19.993 86.6368 20.8736C85.7836 26.3777 84.8755 31.8543 84.0223 37.3583C85.3433 37.1657 86.8294 36.918 87.7376 35.8447C89.2787 34.1109 90.5447 32.102 91.4804 30.0104C91.8106 29.1848 91.9757 28.0014 93.049 27.8638C94.4526 27.8088 95.8836 27.8363 97.3147 27.8638C98.2779 27.8363 98.9934 28.9371 98.6632 29.8178C98.3054 31.1387 97.6724 32.3496 97.0395 33.5055C95.6084 35.8172 94.0122 38.1289 91.9482 39.9728C92.8564 42.7248 94.0397 45.3943 95.0305 48.0913C95.3332 48.972 96.0487 50.0177 95.3882 50.8984C94.6177 51.9442 93.1866 51.4213 92.1133 51.5313C91.0125 51.3937 89.3888 51.9717 88.7834 50.7057C87.6275 48.0087 86.6643 45.2292 85.4809 42.5322C84.7929 42.5597 84.0774 42.5872 83.3894 42.5047C83.3343 42.6147 83.2518 42.8074 83.1967 42.8899C82.839 45.3668 82.4262 47.8436 82.0409 50.3205C81.9033 50.9259 81.4354 51.4213 80.7749 51.4763C79.454 51.5313 78.133 51.5038 76.7845 51.5038C76.2066 51.5038 75.6837 51.1461 75.436 50.6507C75.1883 50.1553 75.3259 49.5774 75.4085 49.0545C76.867 39.4774 78.3807 29.9278 79.8943 20.3783Z" fill="#107BD4" stroke="#107BD4" stroke-width="0.1009"/>
<path d="M148.64 23.075C148.805 22.387 149.493 21.9192 150.181 21.9467C151.172 21.9742 152.19 21.9192 153.208 21.9742C154.034 22.0018 154.667 22.8274 154.557 23.5979C154.419 25.0015 154.062 26.405 153.951 27.8361C154.915 27.8361 155.905 27.8086 156.869 27.8361C157.722 27.8361 158.465 28.7167 158.3 29.5699C158.19 30.3404 157.997 31.0835 157.887 31.854C157.777 32.487 157.226 33.0099 156.593 33.12C155.41 33.2025 154.254 33.0649 153.071 33.2025C152.575 36.505 152.025 39.835 151.502 43.1374C151.42 43.908 151.392 44.7611 151.832 45.4491C152.493 46.2747 153.676 45.972 154.612 46.0546C155.355 46.2747 155.823 47.1003 155.713 47.8434C155.603 48.6965 155.575 49.5221 155.355 50.3477C155.052 51.2559 154.006 51.4486 153.181 51.6687C150.924 52.2742 148.337 52.2742 146.328 50.9532C144.484 49.6873 144.182 47.2379 144.374 45.1739C144.897 41.1559 145.723 37.193 146.163 33.1475C145.475 33.175 144.622 33.2576 144.099 32.6521C143.494 32.0467 143.796 31.111 143.906 30.3404C144.044 29.5148 144.017 28.469 144.925 28.0287C145.64 27.7535 146.466 27.9462 147.236 27.8636C147.704 26.2399 148.145 24.6437 148.64 23.075Z" fill="#107BD4" stroke="#107BD4" stroke-width="0.1009"/>
<path d="M134.66 31.1112C136.228 29.5425 138.1 28.2766 140.246 27.6161C141.182 27.2033 142.393 27.9738 142.366 29.0196C142.2 30.3681 141.87 31.7166 141.65 33.0651C141.54 33.7256 140.99 34.3035 140.301 34.3861C137.88 34.7989 135.788 36.2575 134.082 37.9913C133.669 38.5141 133.036 39.0095 132.981 39.725C132.458 43.1926 131.908 46.6602 131.385 50.1277C131.302 50.8708 130.669 51.5863 129.899 51.5313C128.633 51.5313 127.367 51.5313 126.129 51.5313C125.275 51.5863 124.505 50.7057 124.587 49.8525C125.688 43 126.761 36.1749 127.835 29.3223C127.89 28.6343 128.385 27.9738 129.101 27.8913C130.009 27.8362 130.945 27.8637 131.88 27.8637C132.623 27.8637 133.311 28.5242 133.311 29.2948C133.311 30.3681 133.201 31.4414 133.201 32.5422C133.807 32.1294 134.164 31.5515 134.66 31.1112Z" fill="#107BD4" stroke="#107BD4" stroke-width="0.1009"/>
<path d="M42.1911 27.9462C43.5396 27.671 44.9156 27.8912 46.2366 27.8362C47.0072 27.7261 47.8328 28.2215 47.9429 28.992C48.0529 29.68 47.8328 30.3405 47.7777 31.0285C46.7595 37.3857 45.7412 43.7429 44.7505 50.1002C44.6679 50.8157 44.09 51.5312 43.3194 51.5037C41.9709 51.5037 40.6499 51.5312 39.2739 51.4762C38.4208 51.3661 37.8153 50.4029 38.0355 49.6048C39.1088 42.9999 40.1271 36.4225 41.1728 29.8176C41.2554 29.1021 41.448 28.249 42.1911 27.9462Z" fill="#107BD4" stroke="#107BD4" stroke-width="0.1009"/>
<path d="M122.248 28.2764C118.56 27.5884 114.79 27.093 111.075 27.4508C107.745 27.8636 104.36 29.3772 102.323 32.1293C99.4886 35.7344 98.5254 40.578 99.1583 45.0914C99.5161 47.238 100.452 49.4121 102.213 50.7606C103.837 52.0265 106.038 52.1916 108.02 51.8614C110.799 51.311 113.139 49.5497 115.065 47.5682C115.175 48.4213 114.955 49.2469 115.01 50.0726C115.065 50.8431 115.753 51.5587 116.524 51.5036C117.377 51.5036 118.202 51.5036 119.056 51.5036C119.799 51.5036 120.404 50.8156 120.459 50.1001C121.532 43.3851 122.578 36.7252 123.624 30.0377C123.762 29.1846 123.074 28.3865 122.248 28.2764ZM115.285 39.9451C114.295 41.7889 112.919 43.4952 111.35 44.9262C110.469 45.6693 109.313 46.4399 108.102 46.1922C106.919 45.9445 106.341 44.7061 106.066 43.6328C105.461 40.8532 106.011 37.8535 107.58 35.4317C108.268 34.3309 109.396 33.4778 110.662 33.12C112.478 32.6797 114.377 32.8998 116.138 33.3952L116.248 33.5053C116.028 35.6519 115.616 37.7709 115.285 39.9451Z" fill="#107BD4" stroke="#107BD4" stroke-width="0.1009"/>
<path d="M73.6745 36.23C73.647 33.7532 72.9865 31.1662 71.2527 29.2949C70.0693 27.9739 68.2805 27.3134 66.5467 27.3409C63.6846 27.2308 60.9876 28.6619 58.8685 30.5333C58.4007 30.891 58.0704 31.4414 57.5475 31.7442C57.5475 30.9186 57.6301 30.1205 57.6026 29.2673C57.6301 28.4968 56.9146 27.8363 56.1715 27.8363C55.3184 27.8363 54.4928 27.8363 53.6396 27.8363C52.8415 27.8363 52.2086 28.5243 52.1535 29.2949C50.5849 39.2022 49.0162 49.082 47.4475 58.9894C47.2274 59.8975 48.0255 60.8332 48.9612 60.8332C50.3372 60.8057 51.7682 60.9433 53.1167 60.7231C54.2176 60.4204 54.19 59.1545 54.3552 58.2463C54.7404 56.0722 55.0157 53.8981 55.2633 51.6965C60.1344 52.6321 65.8036 51.9992 69.4363 48.3114C72.4361 45.064 73.8396 40.5782 73.6745 36.23ZM66.7669 38.7068C66.6293 40.991 65.8036 43.2752 64.2075 44.954C62.1434 46.9079 59.0336 46.6327 56.5018 45.9722C56.4467 45.8896 56.3917 45.752 56.3642 45.6695C56.7494 43.5229 56.9696 41.3488 57.465 39.2022C58.841 36.918 60.5197 34.6338 62.9415 33.3679C63.8222 32.9551 65.0331 33.0376 65.6936 33.8632C66.7669 35.2393 66.8494 37.0556 66.7669 38.7068Z" fill="#107BD4" stroke="#107BD4" stroke-width="0.1009"/>
<defs>
<linearGradient id="paint0_linear" x1="211.478" y1="11.8053" x2="211.478" y2="64.9862" gradientUnits="userSpaceOnUse">
<stop stop-color="#F7E830"/>
<stop offset="1" stop-color="#FDCB06"/>
</linearGradient>
<radialGradient id="paint1_radial" cx="0" cy="0" r="1" gradientUnits="userSpaceOnUse" gradientTransform="translate(211.201 36.0614) scale(43.2569)">
<stop offset="0.5962" stop-color="#F29405"/>
<stop offset="0.7362" stop-color="#F7D01E"/>
<stop offset="1" stop-color="#FDCB06"/>
</radialGradient>
<linearGradient id="paint2_linear" x1="226.276" y1="13.7247" x2="226.291" y2="16.2429" gradientUnits="userSpaceOnUse">
<stop stop-color="#FADA1C"/>
<stop offset="1" stop-color="#FDCB06"/>
</linearGradient>
<linearGradient id="paint3_linear" x1="196.654" y1="13.604" x2="196.639" y2="16.1223" gradientUnits="userSpaceOnUse">
<stop stop-color="#FADA1C"/>
<stop offset="1" stop-color="#FDCB06"/>
</linearGradient>
</defs>
</svg>
