<svg width="166" height="80" viewBox="0 0 166 80" fill="none" xmlns="http://www.w3.org/2000/svg">
<path d="M55.188 6.38293H65.3132V42.934H55.188V6.38293ZM70.626 42.934V6.38293H98.4686V13.4694H80.7503V21.0115H97.0499V28.0993H80.7503V35.8442H98.4686V42.934H70.626ZM104.141 42.934V6.38293H131.977V13.4694H114.264V21.0115H130.558V28.0993H114.264V35.8442H131.977V42.934H104.141ZM137.646 42.934V6.38293H165.489V13.4694H147.777V21.0115H164.072V28.0993H147.777V35.8442H165.489V42.934H137.646ZM23.0962 28.3262C22.9624 30.9072 22.9295 33.2958 22.7385 35.8828C23.7601 35.9759 24.9126 36.0648 26.0018 35.9062L25.6765 28.6935L25.6193 28.3503C24.79 28.3828 24.0047 28.4157 23.0962 28.3262ZM16.7164 21.0784C15.4583 21.7092 13.6074 22.6625 13.8115 24.3879C14.081 25.3304 15.1012 25.9389 15.9085 26.3264C20.3706 28.2925 26.2942 28.3592 31.0051 26.8917C32.1679 26.4436 33.7293 25.7935 33.9432 24.3687C33.9307 23.1912 32.6845 22.4501 31.7888 21.9995V21.9435C32.1012 21.82 32.4603 21.7092 32.7837 21.6755V21.6436C31.2056 21.3609 29.6822 20.9481 28.154 20.5442C28.4482 21.2149 28.6606 21.9222 28.9061 22.619C29.3652 22.4723 29.8359 22.3606 30.3315 22.2931C31.1374 22.6067 32.2914 23.0555 32.4058 24.0632C32.4956 25.0057 31.4642 25.4648 30.8128 25.8473C27.3572 27.1047 23.4692 27.2274 19.8653 26.2711C18.8699 25.9577 17.4333 25.5549 17.3099 24.2874C18.0165 22.619 19.8439 22.2718 21.3702 21.8663C20.5857 21.3609 19.7881 20.9137 19.0277 20.3511C18.2067 20.3967 17.4567 20.7558 16.7164 21.0784ZM24.3509 11.0105L23.9034 12.4464L21.6603 18.8718C22.2222 18.929 22.9177 18.8718 23.4692 18.929V18.9821L23.141 26.2498L23.1976 26.3264C23.9152 26.3967 24.8113 26.4326 25.5427 26.3079V26.1933L25.2497 19.1441L25.2938 18.9056L27.2675 18.8718C26.2832 16.2709 25.3284 13.6438 24.4088 11.0105H24.3509ZM23.3086 7.7823C24.9588 6.65799 26.4396 8.22969 27.7183 9.12791C32.6623 13.1075 37.3279 17.6627 40.8827 22.8066C41.3308 23.4705 41.5335 24.501 41.1316 25.2525C40.21 26.7896 38.9663 28.1924 37.7876 29.6172V29.6953C34.8483 32.8242 31.7441 36.0407 28.3898 38.6904C26.7526 39.6865 25.2497 41.8621 23.141 40.5146C18.3398 37.0058 13.7453 32.6435 9.85049 27.9649C9.1901 26.9365 8.15883 26.0934 7.69973 24.927C7.05863 23.347 8.47178 22.2137 9.2804 21.0239C13.2517 16.1262 18.184 11.3235 23.3086 7.7823ZM27.4467 3.10441L25.6193 0.51454C25.3952 0.378049 25.1161 0.151944 24.8685 0.0857666C24.3294 -0.147922 23.7483 0.13471 23.3086 0.468353L20.0018 4.77539C14.6966 11.3455 8.41665 17.4807 1.56524 22.1835C1.02341 22.6067 0.218257 23.0196 0.0507474 23.7173C-0.129172 24.3446 0.197578 24.8622 0.587059 25.2525C6.07357 29.0315 11.3188 33.5176 15.9877 38.634C16.8163 39.5046 17.4884 40.3704 18.2991 41.1879C19.6647 43.0051 21.2689 44.8367 22.524 46.7863C22.9177 47.1977 22.9852 47.874 23.6009 48.0745C24.0826 48.2415 24.6777 48.3544 25.1374 48.0745L25.5944 47.6154C31.2713 39.5736 38.4707 32.3512 46.5146 26.52C47.3199 25.8011 48.8578 25.5336 48.8798 24.1992C48.8226 23.5834 48.4642 22.9768 47.9354 22.6405L47.8037 22.619C43.6644 19.8031 39.8075 16.6183 36.1739 13.0055L32.1585 8.8108C30.5316 7.00748 28.9508 5.00975 27.4467 3.10441ZM22.7157 6.79378C24.3294 5.5378 26.3602 6.58078 27.7183 7.73612C29.1404 8.82322 30.6218 10.0551 31.922 11.3138L32.1585 11.4496C35.7589 14.7902 39.1029 18.503 41.8499 22.4282C42.2953 23.1112 42.6887 23.8855 42.4401 24.7919C41.5238 27.0819 39.6627 28.9074 38.035 30.9072C34.5139 34.6971 30.7997 38.3645 26.6416 41.2901C25.8006 41.8849 24.6659 42.4344 23.6582 41.9622C20.5974 40.3601 18.0165 37.7357 15.3377 35.3443C12.2308 32.4637 9.11288 29.1094 6.75809 25.6005C6.4079 25.1083 6.30933 24.501 6.31965 23.8517C6.62228 22.6405 7.45225 21.6436 8.23742 20.6227C11.0196 17.0768 14.4277 13.7134 17.8696 10.641C17.9489 10.5624 18.0957 10.3949 18.2205 10.315C19.6985 9.03692 21.1667 7.9057 22.7157 6.79378Z" fill="white"/>
<path d="M5.0939 72.1903L2.86487 66.3669H3.52429L4.99174 70.2863C5.0908 70.5774 5.17749 70.8404 5.25179 71.0758C5.33228 71.3048 5.40039 71.5216 5.45612 71.7259C5.53042 71.4659 5.6078 71.209 5.68831 70.955C5.7688 70.7011 5.8431 70.4782 5.91121 70.2863L7.37866 66.3669H8.0288L5.79047 72.1903H5.0939Z" fill="white"/>
<path d="M10.7692 66.3669V72.1903H10.1748V66.3669H10.7692Z" fill="white"/>
<path d="M17.6297 66.3669V66.9149H15.5957V72.1903H15.0013V66.9149H12.9673V66.3669H17.6297Z" fill="white"/>
<path d="M23.9271 72.1903L21.698 66.3669H22.3575L23.8249 70.2863C23.9241 70.5774 24.0107 70.8404 24.085 71.0758C24.1656 71.3048 24.2336 71.5216 24.2893 71.7259C24.3636 71.4659 24.4411 71.209 24.5215 70.955C24.6021 70.7011 24.6764 70.4782 24.7444 70.2863L26.2118 66.3669H26.862L24.6236 72.1903H23.9271Z" fill="white"/>
<path d="M32.8253 71.6238V72.1903H29.0081V66.3669H32.7417V66.9149H29.6025V68.9396H32.3981V69.469H29.6025V71.6238H32.8253Z" fill="white"/>
<path d="M38.7352 71.6238V72.1903H35.2151V66.3669H35.8096V71.6238H38.7352Z" fill="white"/>
<path d="M44.4616 71.6238V72.1903H40.9416V66.3669H41.536V71.6238H44.4616Z" fill="white"/>
<path d="M51.3076 69.2647C51.3076 70.3173 51.1065 71.0789 50.7039 71.5494C50.3077 72.0199 49.6576 72.2553 48.7535 72.2553C47.769 72.2553 47.0942 72.0385 46.7288 71.6052C46.3698 71.1718 46.1902 70.3916 46.1902 69.2647C46.1902 68.212 46.3884 67.4504 46.7846 66.9799C47.1871 66.5094 47.8434 66.274 48.7535 66.274C49.7319 66.274 50.4006 66.4908 50.7597 66.9242C51.1251 67.3575 51.3076 68.1377 51.3076 69.2647ZM47.1003 71.0851C47.2365 71.3018 47.4286 71.4597 47.6762 71.5587C47.9238 71.6516 48.283 71.698 48.7535 71.698C49.4841 71.698 49.992 71.5154 50.2767 71.1501C50.5615 70.7847 50.7039 70.1563 50.7039 69.2647C50.7039 68.8127 50.6792 68.4412 50.6296 68.1502C50.58 67.8591 50.5028 67.6239 50.3975 67.4443C50.2674 67.2214 50.0785 67.0635 49.8309 66.9706C49.5894 66.8716 49.2304 66.822 48.7535 66.822C48.0166 66.822 47.5058 67.0046 47.2211 67.37C46.9363 67.7354 46.7938 68.3669 46.7938 69.2647C46.7938 69.7166 46.8185 70.0881 46.8682 70.3792C46.9178 70.6703 46.995 70.9054 47.1003 71.0851Z" fill="white"/>
<path d="M54.4127 70.0356V72.1903H53.8183V66.3669H55.7501C56.5489 66.3669 57.1247 66.5063 57.4776 66.7849C57.8306 67.0635 58.007 67.5154 58.007 68.1409C58.007 68.6549 57.8895 69.0635 57.6541 69.3669C57.4187 69.6702 57.0629 69.8684 56.586 69.9613L58.1463 72.1903H57.4312L55.9545 70.0356H54.4127ZM57.4033 68.1409C57.4033 67.7012 57.2765 67.3886 57.0225 67.2028C56.7686 67.011 56.3445 66.9149 55.7501 66.9149H54.4127V69.5062H55.7501C56.326 69.5062 56.7439 69.3979 57.004 69.1811C57.2701 68.9643 57.4033 68.6177 57.4033 68.1409Z" fill="white"/>
<path d="M64.3144 71.6238V72.1903H60.4972V66.3669H64.2308V66.9149H61.0916V68.9396H63.8872V69.469H61.0916V71.6238H64.3144Z" fill="white"/>
<path d="M71.9214 69.664L70.4447 69.3111C70.0607 69.2182 69.7852 69.0635 69.6181 68.8467C69.4509 68.6299 69.3673 68.3266 69.3673 67.9365C69.3673 67.3607 69.5313 66.9396 69.8596 66.6734C70.1878 66.4072 70.7079 66.274 71.4199 66.274C71.7171 66.274 71.9833 66.2895 72.2186 66.3205C72.4601 66.3452 72.6769 66.3855 72.8687 66.4412V66.9892C72.6644 66.9335 72.4383 66.8932 72.1907 66.8685C71.9432 66.8374 71.6831 66.822 71.4106 66.822C70.878 66.822 70.5036 66.9024 70.2868 67.0635C70.07 67.2182 69.9617 67.4939 69.9617 67.8901C69.9617 68.1502 70.0143 68.3452 70.1196 68.4752C70.2249 68.6052 70.3982 68.6981 70.6397 68.7539L72.1164 69.1161C72.5933 69.2275 72.912 69.3886 73.0731 69.599C73.2341 69.8034 73.3145 70.1191 73.3145 70.5464C73.3145 71.1718 73.1535 71.6144 72.8316 71.8745C72.5097 72.1284 71.9957 72.2553 71.2898 72.2553C70.9122 72.2553 70.5468 72.2306 70.1939 72.181C69.841 72.1314 69.5623 72.0664 69.358 71.986V71.4194C69.6677 71.5123 69.9835 71.5834 70.3054 71.633C70.6273 71.6763 70.9555 71.698 71.2898 71.698C71.81 71.698 72.1753 71.6206 72.3858 71.4658C72.5962 71.3048 72.7016 71.0015 72.7016 70.5557C72.7016 70.277 72.649 70.0759 72.5437 69.952C72.4383 69.8281 72.2311 69.7322 71.9214 69.664Z" fill="white"/>
<path d="M79.677 66.3669V66.9149H77.643V72.1903H77.0486V66.9149H75.0146V66.3669H79.677Z" fill="white"/>
<path d="M85.7707 69.9055V66.3669H86.3651V69.9055C86.3651 70.7167 86.1794 71.3111 85.8079 71.6888C85.4364 72.0664 84.8574 72.2553 84.0711 72.2553C83.2848 72.2553 82.7119 72.0696 82.3529 71.6981C81.9938 71.3265 81.8142 70.729 81.8142 69.9055V66.3669H82.4086V69.9055C82.4086 70.5618 82.5355 71.0262 82.7894 71.2987C83.0433 71.5649 83.4706 71.6981 84.0711 71.6981C84.6902 71.6981 85.1267 71.5649 85.3807 71.2987C85.6407 71.0262 85.7707 70.5618 85.7707 69.9055Z" fill="white"/>
<path d="M90.6721 72.1903H89.0839V66.3669H90.6721C91.2726 66.3669 91.7463 66.4165 92.0931 66.5155C92.446 66.6084 92.7276 66.7632 92.9382 66.9799C93.1424 67.1967 93.2912 67.4908 93.384 67.8623C93.483 68.2276 93.5326 68.6981 93.5326 69.274C93.5326 70.2832 93.3066 71.0232 92.8546 71.4937C92.4025 71.9581 91.6751 72.1903 90.6721 72.1903ZM92.4831 67.4165C92.3221 67.2368 92.1023 67.11 91.8237 67.0357C91.5451 66.9552 91.1611 66.9149 90.6721 66.9149H89.6783V71.6238H90.6721C91.4955 71.6238 92.0745 71.4441 92.4088 71.0851C92.7493 70.726 92.9195 70.1223 92.9195 69.274C92.9195 68.7971 92.8825 68.4134 92.8082 68.1223C92.74 67.8251 92.6317 67.5897 92.4831 67.4165Z" fill="white"/>
<path d="M99.8609 71.6238V72.1903H96.0437V66.3669H99.7773V66.9149H96.6381V68.9396H99.4337V69.469H96.6381V71.6238H99.8609Z" fill="white"/>
<path d="M106.932 66.3669V72.1903H106.3L102.817 67.3143V72.1903H102.251V66.3669H102.882L106.365 71.2894V66.3669H106.932Z" fill="white"/>
<path d="M113.796 66.3669V66.9149H111.762V72.1903H111.168V66.9149H109.134V66.3669H113.796Z" fill="white"/>
<path d="M120.98 71.698C121.233 71.698 121.497 71.667 121.769 71.6052C122.048 71.5433 122.314 71.4597 122.568 71.3544V71.8931C122.227 72.0292 121.927 72.1253 121.667 72.181C121.407 72.2306 121.138 72.2553 120.859 72.2553C119.98 72.2553 119.357 72.0263 118.992 71.568C118.627 71.1036 118.444 70.3359 118.444 69.2647C118.444 68.2306 118.652 67.4753 119.067 66.9985C119.488 66.5155 120.156 66.274 121.073 66.274C121.357 66.274 121.611 66.2802 121.834 66.2926C122.057 66.3051 122.258 66.3266 122.438 66.3576V66.8963C122.227 66.8716 122.014 66.8531 121.797 66.8406C121.58 66.8281 121.339 66.822 121.073 66.822C120.336 66.822 119.816 67.0109 119.512 67.3886C119.209 67.7601 119.057 68.3855 119.057 69.2647C119.057 70.1687 119.193 70.8003 119.466 71.1593C119.745 71.5184 120.249 71.698 120.98 71.698Z" fill="white"/>
<path d="M125.47 72.1903H124.875V66.3669H125.47V68.9582H128.813V66.3669H129.417V72.1903H128.813V69.5155H125.47V72.1903Z" fill="white"/>
<path d="M132.207 72.1903H131.576L133.916 66.3669H134.539L136.87 72.1903H136.229L135.635 70.6578H132.811L132.207 72.1903ZM134.214 66.8963C134.164 67.0511 134.108 67.2214 134.046 67.4072C133.985 67.5929 133.882 67.8808 133.74 68.2709L133.015 70.1284H135.43L134.706 68.2709C134.613 68.0294 134.523 67.7941 134.436 67.5651C134.356 67.3297 134.282 67.1068 134.214 66.8963Z" fill="white"/>
<path d="M139.616 70.2306V72.1903H139.022V66.3669H140.954C141.752 66.3669 142.328 66.5124 142.681 66.8035C143.034 67.0946 143.211 67.5712 143.211 68.2338C143.211 68.9086 143.028 69.4101 142.663 69.7384C142.297 70.0666 141.737 70.2306 140.982 70.2306H139.616ZM142.607 68.2338C142.607 67.7633 142.48 67.4257 142.226 67.2214C141.972 67.0171 141.548 66.9149 140.954 66.9149H139.616V69.7012H140.954C141.536 69.7012 141.957 69.5866 142.217 69.3576C142.477 69.1222 142.607 68.7478 142.607 68.2338Z" fill="white"/>
<path d="M149.606 66.3669V66.9149H147.572V72.1903H146.978V66.9149H144.944V66.3669H149.606Z" fill="white"/>
<path d="M155.616 71.6238V72.1903H151.799V66.3669H155.532V66.9149H152.393V68.9396H155.189V69.469H152.393V71.6238H155.616Z" fill="white"/>
<path d="M158.6 70.0356V72.1903H158.006V66.3669H159.938C160.737 66.3669 161.312 66.5063 161.665 66.7849C162.018 67.0635 162.195 67.5154 162.195 68.1409C162.195 68.6549 162.077 69.0635 161.842 69.3669C161.607 69.6702 161.251 69.8684 160.774 69.9613L162.334 72.1903H161.619L160.142 70.0356H158.6ZM161.591 68.1409C161.591 67.7012 161.464 67.3886 161.21 67.2028C160.957 67.011 160.532 66.9149 159.938 66.9149H158.6V69.5062H159.938C160.514 69.5062 160.932 69.3979 161.192 69.1811C161.458 68.9643 161.591 68.6177 161.591 68.1409Z" fill="white"/>
<path d="M165.489 58.4696H0V59.3139H165.489V58.4696Z" fill="url(#paint0_linear)"/>
<path d="M165.489 79.1556H0V80H165.489V79.1556Z" fill="url(#paint1_linear)"/>
<defs>
<linearGradient id="paint0_linear" x1="165.489" y1="58.8918" x2="3.24052e-06" y2="58.893" gradientUnits="userSpaceOnUse">
<stop stop-color="white" stop-opacity="0"/>
<stop offset="0.5" stop-color="white" stop-opacity="0.64"/>
<stop offset="1" stop-color="white" stop-opacity="0"/>
</linearGradient>
<linearGradient id="paint1_linear" x1="165.489" y1="79.5778" x2="3.24052e-06" y2="79.5791" gradientUnits="userSpaceOnUse">
<stop stop-color="white" stop-opacity="0"/>
<stop offset="0.5" stop-color="white" stop-opacity="0.64"/>
<stop offset="1" stop-color="white" stop-opacity="0"/>
</linearGradient>
</defs>
</svg>
