<svg width="32" height="33" viewBox="0 0 32 33" fill="none" xmlns="http://www.w3.org/2000/svg">
<path d="M25.5321 14.6743H5.81651C4.261 14.6743 3 15.9353 3 17.4908V27.3486C3 28.9042 4.261 30.1651 5.81651 30.1651H25.5321C27.0876 30.1651 28.3486 28.9042 28.3486 27.3486V17.4908C28.3486 15.9353 27.0876 14.6743 25.5321 14.6743Z" stroke="black" stroke-width="4" stroke-linecap="round" stroke-linejoin="round"/>
<path d="M8.63306 14.6743V9.04129C8.63306 7.17382 9.3749 5.38284 10.6954 4.06235C12.0159 2.74185 13.8069 2 15.6743 2C17.5418 2 19.3328 2.74185 20.6533 4.06235C21.9738 5.38284 22.7156 7.17382 22.7156 9.04129V14.6743" stroke="black" stroke-width="4" stroke-linecap="round" stroke-linejoin="round"/>
</svg>
