<svg width="332" height="553" viewBox="0 0 332 553" fill="none" xmlns="http://www.w3.org/2000/svg">
<path d="M301.238 10.6188L301.238 8.88675L299.738 9.75278L283.738 18.9904L282.238 19.8564L283.738 20.7224L299.738 29.96L301.238 30.8261L301.238 29.094L301.238 10.6188Z" stroke="#E56D6E" stroke-width="2"/>
<circle cx="243" cy="395.547" r="9" stroke="#99C661" stroke-width="2"/>
<path d="M301.238 530.619L301.238 528.887L299.738 529.753L283.738 538.99L282.238 539.856L283.738 540.722L299.738 549.96L301.238 550.826L301.238 549.094L301.238 530.619Z" stroke="#99C661" stroke-width="2"/>
<rect x="230.706" y="156.253" width="18" height="18" transform="rotate(-30 230.706 156.253)" stroke="#9ECCD6" stroke-width="2"/>
<circle cx="322" cy="257.547" r="9" stroke="#EA9959" stroke-width="2"/>
<circle cx="92.9282" cy="395.475" r="9" transform="rotate(30 92.9282 395.475)" stroke="#E56D6E" stroke-width="2"/>
<rect x="10.634" y="242.181" width="18" height="18" transform="rotate(30 10.634 242.181)" stroke="#99C661" stroke-width="2"/>
<circle cx="32" cy="537.547" r="9" stroke="#9ECCD6" stroke-width="2"/>
<rect x="22.634" y="17.181" width="18" height="18" transform="rotate(-30 22.634 17.181)" stroke="#EA9959" stroke-width="2"/>
<path d="M85.5 149.3L84 148.434L84 150.166L84 168.641L84 170.373L85.5 169.507L101.5 160.269L103 159.403L101.5 158.537L85.5 149.3Z" stroke="#EA9959" stroke-width="2"/>
<rect x="154.706" y="481.253" width="18" height="18" transform="rotate(-30 154.706 481.253)" stroke="#E56D6E" stroke-width="2"/>
<path d="M165.371 64.047L166.237 65.547L167.104 64.047L176.341 48.047L177.207 46.547H175.475H157H155.268L156.134 48.047L165.371 64.047Z" stroke="#9ECCD6" stroke-width="2"/>
</svg>
