<svg width="726" height="360" viewBox="0 0 726 360" fill="none" xmlns="http://www.w3.org/2000/svg">
<rect width="726" height="360" fill="white"/>
<path opacity="0.1" d="M243.598 340C320.697 340 383.197 330.526 383.197 318.84C383.197 307.153 320.697 297.68 243.598 297.68C166.5 297.68 104 307.153 104 318.84C104 330.526 166.5 340 243.598 340Z" fill="#E56D6E"/>
<path d="M289.128 192.449L289.081 194.171L286.083 300.013H281.04L283.515 194.171L283.562 192.184L289.128 192.449Z" fill="#504F60"/>
<path opacity="0.1" d="M289.128 192.449L289.081 194.171L286.083 300.013H281.04L283.515 194.171L283.562 192.184L289.128 192.449Z" fill="black"/>
<path d="M318.312 282.109L314.538 282.098L258.434 281.98L255.448 281.974L257.035 277.066H317.912L318.312 282.109Z" fill="#504F60"/>
<path opacity="0.1" d="M289.128 192.449L289.081 194.171H283.515L283.562 192.184L289.128 192.449Z" fill="black"/>
<path d="M291.256 189.863H281.904V193.378H291.256V189.863Z" fill="#504F60"/>
<path opacity="0.1" d="M258.934 277.066L258.434 281.98L255.448 281.974L257.035 277.066H258.934Z" fill="black"/>
<path d="M266.986 189.798L266.828 191.321L254.384 314.067L248.683 313.803L261.796 191.321L261.943 189.928L266.986 189.798Z" fill="#504F60"/>
<path opacity="0.1" d="M318.311 282.109L314.538 282.098L314.026 277.066H317.912L318.311 282.109Z" fill="black"/>
<path d="M324.284 313.803L318.576 314.067L306.133 191.321L305.98 189.798L311.017 189.928L311.164 191.321L324.284 313.803Z" fill="#504F60"/>
<path d="M348.553 68.7676H222.82V189.328H348.553V68.7676Z" fill="white"/>
<path d="M197.669 69.0676H373.851C375.026 69.0676 375.979 70.0202 375.979 71.1952V186.9C375.979 188.075 375.026 189.028 373.851 189.028H197.669C196.494 189.028 195.541 188.075 195.541 186.9V71.1952C195.541 70.0202 196.494 69.0676 197.669 69.0676Z" fill="white" stroke="black" stroke-width="0.6"/>
<path d="M288.135 28.4514V57.5643H283.233V28.4514C283.233 27.8013 283.491 27.1779 283.951 26.7183C284.41 26.2586 285.034 26.0004 285.684 26.0004C286.334 26.0004 286.957 26.2586 287.417 26.7183C287.877 27.1779 288.135 27.8013 288.135 28.4514Z" fill="#504F60"/>
<path opacity="0.1" d="M288.141 54.9138H283.233V57.5647H288.141V54.9138Z" fill="black"/>
<path d="M290.063 56.9005V66.5166H281.311V56.9005C281.311 56.5887 281.435 56.2897 281.655 56.0692C281.876 55.8487 282.175 55.7249 282.486 55.7249H288.852C289.009 55.7202 289.166 55.7471 289.313 55.804C289.46 55.861 289.593 55.9468 289.706 56.0565C289.819 56.1661 289.909 56.2973 289.97 56.4423C290.031 56.5873 290.063 56.7431 290.063 56.9005Z" fill="#504F60"/>
<path opacity="0.1" d="M285.684 63.6658C286.71 63.6658 287.541 62.8342 287.541 61.8084C287.541 60.7826 286.71 59.951 285.684 59.951C284.658 59.951 283.826 60.7826 283.826 61.8084C283.826 62.8342 284.658 63.6658 285.684 63.6658Z" fill="black"/>
<path d="M285.684 63.2658C286.71 63.2658 287.541 62.4342 287.541 61.4084C287.541 60.3826 286.71 59.551 285.684 59.551C284.658 59.551 283.826 60.3826 283.826 61.4084C283.826 62.4342 284.658 63.2658 285.684 63.2658Z" fill="#3F3D56"/>
<path opacity="0.1" d="M290.063 65.3236H281.311V66.5168H290.063V65.3236Z" fill="black"/>
<path opacity="0.1" d="M293.643 66.9161H277.725V69.567H293.643V66.9161Z" fill="black"/>
<path d="M293.643 66.1169H277.725V68.7678H293.643V66.1169Z" fill="#504F60"/>
<path opacity="0.1" d="M254.12 186.189H319.705C320.64 186.189 321.537 186.561 322.198 187.222C322.86 187.884 323.231 188.781 323.231 189.716H250.605C250.605 188.783 250.975 187.887 251.634 187.226C252.293 186.565 253.187 186.192 254.12 186.189Z" fill="black"/>
<path opacity="0.1" d="M261.943 189.928L266.986 189.798L266.828 191.321H261.796L261.943 189.928Z" fill="black"/>
<path opacity="0.1" d="M291.256 189.863H281.904V191.321H291.256V189.863Z" fill="black"/>
<path opacity="0.1" d="M311.164 191.321H306.133L305.98 189.798L311.017 189.928L311.164 191.321Z" fill="black"/>
<path d="M254.12 187.012H319.705C320.64 187.012 321.537 187.383 322.198 188.045C322.86 188.706 323.231 189.603 323.231 190.539H250.605C250.605 189.603 250.977 188.706 251.638 188.045C252.299 187.383 253.196 187.012 254.132 187.012H254.12Z" fill="#504F60"/>
<path d="M344.162 82.927C344.295 82.9063 344.432 82.9165 344.56 82.957C344.689 82.9974 344.806 83.067 344.903 83.1603C345.001 83.2536 345.075 83.368 345.121 83.4947C345.167 83.6215 345.183 83.7571 345.167 83.891C344.315 92.1199 344.862 100.549 345.785 108.76C346.214 112.516 346.796 116.489 348.459 119.276C348.565 119.444 348.611 119.644 348.59 119.843C348.569 120.041 348.481 120.226 348.341 120.369C347.877 120.73 347.294 120.904 346.707 120.857L320.475 121.004C320.342 121.005 320.21 120.975 320.09 120.918C319.97 120.86 319.864 120.776 319.782 120.672C319.699 120.568 319.641 120.446 319.612 120.316C319.584 120.186 319.585 120.051 319.616 119.922C321.727 110.929 321.274 101.113 320.428 91.7849C320.01 87.1943 319.769 84.7315 323.196 84.4082C326.723 84.0908 330.249 83.9439 333.776 83.65C334.623 83.5794 341.406 83.3796 344.162 82.927Z" fill="white" stroke="#33313F" stroke-width="0.6" stroke-miterlimit="10"/>
<path d="M324.09 136.821C323.956 136.8 323.82 136.811 323.692 136.851C323.563 136.891 323.446 136.961 323.349 137.054C323.251 137.148 323.177 137.262 323.131 137.389C323.085 137.516 323.069 137.651 323.084 137.785C323.937 146.014 323.39 154.443 322.461 162.654C322.038 166.41 321.456 170.383 319.793 173.175C319.686 173.343 319.64 173.542 319.661 173.74C319.682 173.937 319.77 174.122 319.91 174.263C320.375 174.624 320.958 174.798 321.544 174.751L347.777 174.904C347.91 174.903 348.041 174.872 348.161 174.813C348.28 174.755 348.385 174.67 348.467 174.566C348.55 174.461 348.608 174.34 348.637 174.21C348.666 174.08 348.665 173.946 348.635 173.816C346.525 164.823 346.978 155.007 347.824 145.679C348.242 141.088 348.483 138.626 345.056 138.302C341.629 137.979 338.002 137.838 334.476 137.544C333.629 137.474 326.846 137.274 324.09 136.821Z" fill="white" stroke="#33313F" stroke-width="0.6" stroke-miterlimit="10"/>
<path d="M331.795 151.963C334.844 151.821 337.897 151.858 340.941 152.074C341.139 152.093 341.323 152.18 341.465 152.319C341.606 152.458 341.695 152.642 341.717 152.839L342.005 155.243C342.02 155.296 342.021 155.353 342.009 155.407C341.996 155.461 341.971 155.512 341.935 155.554C341.87 155.601 341.79 155.621 341.711 155.613C340.43 155.648 339.149 155.501 337.873 155.613C337.08 155.678 336.292 155.83 335.522 155.919C334.22 156.033 332.912 156.057 331.607 155.989C329.769 156.021 327.935 155.795 326.159 155.319C326.159 155.319 326.264 153.326 326.264 153.138C326.264 152.21 326.235 152.127 327.193 152.104L331.795 151.963Z" stroke="#33313F" stroke-width="0.6" stroke-miterlimit="10" stroke-linecap="round"/>
<path d="M331.795 162.801C334.844 162.944 337.898 162.905 340.941 162.683C341.139 162.664 341.323 162.578 341.465 162.439C341.606 162.3 341.695 162.116 341.717 161.919L342.005 159.521C342.02 159.466 342.021 159.409 342.009 159.354C341.996 159.298 341.971 159.247 341.935 159.204C341.87 159.157 341.79 159.136 341.711 159.145C340.43 159.11 339.149 159.262 337.873 159.145C337.08 159.086 336.292 158.933 335.522 158.845C334.22 158.728 332.912 158.704 331.607 158.775C329.769 158.743 327.935 158.968 326.159 159.445C326.159 159.445 326.264 161.431 326.264 161.625C326.264 162.554 326.235 162.63 327.193 162.66L331.795 162.801Z" stroke="#33313F" stroke-width="0.6" stroke-miterlimit="10" stroke-linecap="round"/>
<path d="M331.795 167.045C334.844 166.902 337.898 166.941 340.941 167.163C341.139 167.182 341.323 167.268 341.465 167.407C341.606 167.546 341.695 167.73 341.717 167.927L342.005 170.325C342.02 170.38 342.021 170.437 342.009 170.492C341.996 170.547 341.971 170.599 341.935 170.642C341.87 170.689 341.79 170.71 341.711 170.701C340.43 170.736 339.149 170.583 337.873 170.701C337.08 170.76 336.292 170.919 335.522 171.007C334.22 171.119 332.912 171.141 331.607 171.071C329.769 171.105 327.935 170.881 326.159 170.407C326.159 170.407 326.264 168.415 326.264 168.221C326.264 167.292 326.235 167.215 327.193 167.192L331.795 167.045Z" stroke="#33313F" stroke-width="0.6" stroke-miterlimit="10" stroke-linecap="round"/>
<path d="M335.657 116.737C335.925 117.383 336.015 118.089 335.915 118.782C335.916 118.838 335.902 118.893 335.874 118.941C335.842 118.972 335.803 118.996 335.76 119.011C335.718 119.027 335.672 119.033 335.627 119.029L330.043 119.246C330.043 119.246 330.355 117.601 330.396 117.483C330.59 116.813 331.078 116.989 331.707 116.954L335.657 116.737Z" fill="white" stroke="#33313F" stroke-width="0.6" stroke-miterlimit="10" stroke-linecap="round"/>
<path d="M344.092 116.737C344.359 117.383 344.446 118.09 344.345 118.782C344.348 118.837 344.336 118.892 344.309 118.941C344.276 118.972 344.238 118.995 344.195 119.01C344.153 119.026 344.107 119.032 344.062 119.029L338.473 119.246C338.473 119.246 338.79 117.601 338.831 117.483C339.019 116.813 339.507 116.989 340.142 116.954L344.092 116.737Z" fill="white" stroke="#33313F" stroke-width="0.6" stroke-miterlimit="10" stroke-linecap="round"/>
<path d="M340.724 88.6759L341.476 95.1415C341.501 95.3751 341.479 95.6113 341.412 95.8364C341.344 96.0614 341.232 96.2707 341.083 96.4519C340.934 96.6332 340.749 96.7827 340.541 96.8918C340.333 97.0008 340.105 97.0672 339.871 97.087C335.101 97.4642 330.306 97.4328 325.541 96.993C325.117 96.9522 324.723 96.7596 324.43 96.4506C324.137 96.1416 323.966 95.7372 323.948 95.3119C323.859 94.1594 323.69 93.0144 323.443 91.8851C323.249 90.7096 323.037 89.5752 324.424 89.2284C325.811 88.8816 327.71 89.1284 329.226 89.0991C331.045 89.0638 332.857 89.0128 334.663 88.9462C335.169 88.9462 340.724 88.6465 340.724 88.6759Z" stroke="#33313F" stroke-width="0.6" stroke-miterlimit="10"/>
<path d="M340.723 112.034L341.464 105.569C341.489 105.335 341.467 105.099 341.4 104.874C341.332 104.649 341.221 104.439 341.071 104.258C340.922 104.077 340.737 103.927 340.529 103.818C340.321 103.709 340.094 103.643 339.859 103.623C335.089 103.247 330.295 103.276 325.529 103.711C325.105 103.752 324.709 103.946 324.416 104.256C324.123 104.566 323.953 104.972 323.936 105.398C323.847 106.551 323.678 107.696 323.431 108.825C323.237 110.001 323.025 111.135 324.412 111.482C325.8 111.829 327.698 111.582 329.215 111.611C331.031 111.646 332.841 111.693 334.652 111.764C335.169 111.782 340.723 112.081 340.723 112.034Z" stroke="#33313F" stroke-width="0.6" stroke-miterlimit="10"/>
<path d="M333.171 141.171C332.975 143.322 332.851 145.478 332.8 147.637C330.643 147.618 328.493 147.372 326.388 146.902C326.222 146.894 326.06 146.85 325.913 146.773C325.766 146.695 325.638 146.587 325.537 146.454C325.437 146.322 325.367 146.169 325.332 146.007C325.297 145.845 325.298 145.677 325.335 145.515C325.294 144.175 324.589 141.183 326.476 140.995C327.04 140.936 333.165 141.277 333.171 141.171Z" stroke="#33313F" stroke-width="0.6" stroke-miterlimit="10" stroke-linecap="round"/>
<path d="M229.386 111.805C229.662 111.775 229.942 111.807 230.204 111.899C230.467 111.99 230.706 112.139 230.904 112.334C231.102 112.529 231.254 112.766 231.35 113.028C231.445 113.289 231.481 113.568 231.455 113.845C230.779 121.668 231.314 129.68 232.195 137.48C232.589 140.948 233.112 144.598 234.499 147.331C234.62 147.565 234.679 147.827 234.669 148.09C234.66 148.354 234.583 148.61 234.447 148.836C234.31 149.061 234.117 149.247 233.888 149.377C233.658 149.507 233.399 149.575 233.136 149.576L207.109 149.729C206.953 149.73 206.8 149.696 206.659 149.63C206.519 149.563 206.395 149.466 206.297 149.345C206.2 149.224 206.131 149.083 206.095 148.932C206.059 148.78 206.058 148.623 206.092 148.471C208.155 139.525 207.702 129.756 206.862 120.505C206.439 115.914 206.203 113.451 209.624 113.128C213.151 112.816 216.678 112.669 220.175 112.37C220.922 112.311 226.259 112.146 229.386 111.805Z" fill="white" stroke="#33313F" stroke-width="0.6" stroke-miterlimit="10" stroke-linecap="round"/>
<path d="M265.594 111.658C265.451 111.636 265.306 111.647 265.168 111.691C265.031 111.735 264.906 111.81 264.802 111.91C264.699 112.01 264.62 112.133 264.571 112.268C264.523 112.404 264.507 112.549 264.524 112.692C265.364 120.88 264.818 129.297 263.895 137.479C263.472 141.235 262.89 145.191 261.232 147.983C261.116 148.18 261.077 148.414 261.123 148.639C261.168 148.863 261.295 149.063 261.479 149.2C261.924 149.481 262.447 149.613 262.972 149.576L289.134 149.729C289.278 149.729 289.42 149.696 289.548 149.633C289.677 149.57 289.79 149.478 289.878 149.364C289.966 149.251 290.027 149.119 290.056 148.978C290.085 148.837 290.081 148.692 290.045 148.553C287.959 139.578 288.405 129.773 289.252 120.486C289.669 115.896 289.91 113.433 286.489 113.11C282.963 112.798 279.436 112.651 275.909 112.351C275.045 112.299 268.403 112.105 265.594 111.658Z" fill="white" stroke="#33313F" stroke-width="0.6" stroke-miterlimit="10"/>
<path d="M213.804 117.001L227.111 134.752" stroke="#33313F" stroke-width="0.6" stroke-miterlimit="10" stroke-linecap="round"/>
<path d="M227.111 115.672L214.245 135.639" stroke="#33313F" stroke-width="0.6" stroke-miterlimit="10" stroke-linecap="round"/>
<path d="M273.187 117.836L280.435 127.505" stroke="#33313F" stroke-width="0.6" stroke-miterlimit="10" stroke-linecap="round"/>
<path d="M280.435 117.107L273.429 127.987" stroke="#33313F" stroke-width="0.6" stroke-miterlimit="10" stroke-linecap="round"/>
<path d="M218.2 140.424C221.25 140.282 224.306 140.319 227.352 140.536C227.548 140.557 227.732 140.644 227.873 140.783C228.014 140.922 228.104 141.104 228.128 141.3L228.41 143.704C228.424 143.758 228.425 143.815 228.414 143.87C228.403 143.925 228.379 143.977 228.345 144.022C228.278 144.062 228.2 144.082 228.122 144.08C226.841 144.116 225.553 143.963 224.278 144.08C223.484 144.139 222.703 144.292 221.927 144.38C220.625 144.495 219.317 144.518 218.012 144.451C216.175 144.483 214.343 144.257 212.569 143.781C212.534 143.781 212.675 141.794 212.675 141.6C212.675 140.671 212.64 140.595 213.598 140.565L218.2 140.424Z" stroke="#33313F" stroke-width="0.6" stroke-miterlimit="10" stroke-linecap="round"/>
<path d="M274.11 131.549C277.16 131.406 280.217 131.445 283.262 131.666C283.459 131.685 283.644 131.772 283.786 131.911C283.927 132.05 284.016 132.234 284.038 132.431L284.32 134.829C284.334 134.883 284.335 134.94 284.324 134.995C284.313 135.05 284.29 135.102 284.255 135.146C284.19 135.192 284.111 135.213 284.032 135.205C282.751 135.24 281.463 135.087 280.188 135.205C279.394 135.264 278.613 135.422 277.837 135.505C276.535 135.622 275.227 135.646 273.922 135.575C272.084 135.607 270.25 135.381 268.473 134.905C268.444 134.905 268.579 132.918 268.579 132.724C268.579 131.796 268.55 131.719 269.508 131.69L274.11 131.549Z" stroke="#33313F" stroke-width="0.6" stroke-miterlimit="10" stroke-linecap="round"/>
<path d="M278.771 138.208C275.723 138.066 272.669 138.103 269.625 138.32C269.428 138.339 269.243 138.425 269.102 138.564C268.961 138.703 268.872 138.887 268.85 139.084L268.579 141.482C268.562 141.536 268.559 141.594 268.571 141.649C268.582 141.705 268.607 141.756 268.644 141.799C268.709 141.846 268.788 141.867 268.867 141.858C270.149 141.893 271.43 141.746 272.711 141.858C273.505 141.917 274.287 142.076 275.062 142.164C276.364 142.276 277.672 142.299 278.977 142.234C280.816 142.267 282.65 142.041 284.426 141.564C284.455 141.564 284.32 139.572 284.32 139.384C284.32 138.449 284.355 138.373 283.397 138.349L278.771 138.208Z" stroke="#33313F" stroke-width="0.6" stroke-miterlimit="10" stroke-linecap="round"/>
<path d="M240.736 133.858C240.736 133.858 249.382 133.418 250.934 133.858" stroke="#33313F" stroke-width="0.6" stroke-miterlimit="10"/>
<path d="M250.946 129.203C250.946 129.203 254.714 132.971 254.714 133.859C254.714 134.746 249.835 137.85 249.835 137.85" stroke="#33313F" stroke-width="0.6" stroke-miterlimit="10"/>
<path d="M297.286 125.818C297.286 125.818 305.121 122.15 306.726 121.974" stroke="#33313F" stroke-width="0.6" stroke-miterlimit="10"/>
<path d="M304.975 117.666C304.975 117.666 309.883 119.735 310.218 120.552C310.553 121.369 307.208 126.089 307.208 126.089" stroke="#33313F" stroke-width="0.6" stroke-miterlimit="10"/>
<path d="M297.204 135.211C297.204 135.211 305.169 138.591 306.374 139.672" stroke="#33313F" stroke-width="0.6" stroke-miterlimit="10"/>
<path d="M308.407 135.481C308.407 135.481 310.171 140.518 309.759 141.317C309.348 142.117 303.629 142.775 303.629 142.775" stroke="#33313F" stroke-width="0.6" stroke-miterlimit="10"/>
<path d="M328.116 116.737C328.382 117.383 328.47 118.09 328.368 118.782C328.371 118.837 328.359 118.892 328.333 118.941C328.3 118.972 328.261 118.995 328.219 119.01C328.176 119.026 328.131 119.032 328.086 119.029L322.496 119.246C322.496 119.246 322.814 117.601 322.855 117.483C323.043 116.813 323.537 116.989 324.166 116.954L328.116 116.737Z" fill="white" stroke="#33313F" stroke-width="0.6" stroke-miterlimit="10" stroke-linecap="round"/>
<path d="M222.521 167.391L224.496 165.552L222.732 165.481L221.809 166.898L222.521 167.391Z" fill="#33313F"/>
<path d="M208.314 180.276L210.406 177.59L210.871 177.108L217.278 170.395L219.458 168.115L220.481 167.991L221.95 166.533L222.814 167.292L221.386 168.961L221.41 169.837L219.182 172.253L212.893 179.083L212.487 179.518L209.96 181.857L208.314 180.276Z" fill="#65617D"/>
<path d="M210.871 177.107L217.277 170.395L219.182 172.252L212.893 179.082L210.871 177.107Z" fill="#33313F"/>
<path d="M163.507 312.468L161.744 317.758L167.498 323.513L186.536 327.939L200.261 326.61L199.374 321.738C199.11 320.692 198.563 319.739 197.794 318.984C197.025 318.228 196.062 317.698 195.012 317.453C189.369 316.124 178.613 313.103 176.35 308.901L163.507 312.468Z" fill="#FCBBBB"/>
<path opacity="0.1" d="M163.507 312.468L161.744 317.758L167.498 323.513L186.536 327.939L200.261 326.61L199.374 321.738C199.11 320.692 198.563 319.739 197.794 318.984C197.025 318.228 196.062 317.698 195.012 317.453C189.369 316.124 178.613 313.103 176.35 308.901L163.507 312.468Z" fill="black"/>
<path d="M195.829 325.282L193.173 321.755L195.829 317.641C195.829 317.641 203.794 320.856 207.338 320.415C210.882 319.974 212.628 326.169 206.01 327.939C199.391 329.708 161.738 327.939 161.738 327.939C161.738 327.939 155.096 324.841 161.738 316.43L167.492 320.856C167.492 320.856 177.232 326.146 182.105 325.282H195.829Z" fill="#2E3037"/>
<path d="M207.779 332.812L194.054 334.14L175.016 329.708L169.244 323.954L169.714 322.549L170.372 320.574L171.019 318.64L183.856 315.113C184.508 316.174 185.4 317.066 186.46 317.717C190.627 320.568 198.121 322.631 202.518 323.66C202.7 323.707 202.888 323.76 203.065 323.824C203.995 324.134 204.833 324.673 205.499 325.393C206.166 326.112 206.641 326.988 206.879 327.939L207.779 332.812Z" fill="#FCBBBB"/>
<path opacity="0.1" d="M207.779 332.812L194.054 334.14L175.016 329.708L169.244 323.954L169.714 322.549L175.004 326.61C175.004 326.61 184.749 331.901 189.616 331.036H203.335L200.678 327.51L203.065 323.824C203.995 324.134 204.833 324.673 205.499 325.393C206.166 326.112 206.641 326.988 206.879 327.939L207.779 332.812Z" fill="black"/>
<path d="M203.336 331.483L200.679 327.956L203.336 323.842C203.336 323.842 211.306 327.057 214.844 326.616C218.383 326.175 220.134 332.371 213.522 334.146C206.909 335.921 169.244 334.146 169.244 334.146C169.244 334.146 162.602 331.042 169.244 322.631L174.999 327.057C174.999 327.057 184.744 332.347 189.611 331.489L203.336 331.483Z" fill="#2E3037"/>
<path d="M192.285 74.6985C192.285 74.6985 171.036 76.9085 174.134 68.0565C175.002 65.5463 175.226 62.8584 174.786 60.239C174.236 56.9917 172.954 53.9122 171.036 51.2342L190.956 54.3318C189.762 56.3269 188.854 58.4796 188.258 60.7269C185.884 70.1255 192.285 74.6985 192.285 74.6985Z" fill="#FCBBBB"/>
<path d="M155.984 175.638C155.984 175.638 156.424 194.677 160.85 203.975L161.738 230.978C161.738 230.978 160.41 255.777 157.753 260.644C155.096 265.51 163.507 306.69 163.507 306.69V313.773C163.507 313.773 177.673 319.063 181.658 312.886L177.673 260.203L179.436 187.153L155.984 175.638Z" fill="#35323E"/>
<path opacity="0.1" d="M155.978 175.638C155.978 175.638 156.418 194.677 160.844 203.975L161.732 230.978C161.732 230.978 160.404 255.777 157.747 260.644C155.09 265.51 163.501 306.69 163.501 306.69V313.773C163.501 313.773 177.667 319.063 181.652 312.886L177.667 260.203L179.43 187.153L155.978 175.638Z" fill="black"/>
<path d="M147.125 114.544L144.469 121.627L142.259 136.68C141.959 138.777 142.165 140.916 142.858 142.917C143.551 144.919 144.712 146.726 146.244 148.189C151.534 153.479 158.64 164.571 158.64 164.571L167.051 139.337C167.051 139.337 158.64 138.009 159.998 132.254C161.356 126.5 160.88 115.873 160.88 115.873L147.125 114.544Z" fill="#E56D6E"/>
<path opacity="0.1" d="M186.478 317.706C180.794 326.646 171.96 321.579 170.39 320.574L171.037 318.64L183.874 315.113C184.527 316.169 185.419 317.057 186.478 317.706Z" fill="black"/>
<path d="M204.241 192.908C203.794 199.103 196.27 221.709 196.27 221.709L190.98 240.289C187.165 253.417 185.191 267.011 185.114 280.681C185.114 285.213 184.697 289.892 183.421 293.407C179.895 303.146 186.948 316.43 186.948 316.43C180.753 327.498 170.126 319.957 170.126 319.957V312.904C170.126 312.904 161.738 274.368 163.954 266.845C166.17 259.321 167.058 238.949 167.058 238.949V202.206C159.96 195.137 155.647 185.747 154.908 175.756C154.802 174.304 154.714 172.782 154.661 171.201C154.303 161.209 161.127 149.5 163.795 145.338C164.442 144.327 164.842 143.763 164.842 143.763L203.923 159.269L204.012 159.304V160.815V164.165L204.241 192.908Z" fill="#35323E"/>
<path opacity="0.1" d="M190.956 54.3318C189.763 56.3269 188.854 58.4796 188.258 60.7269C186.095 61.5517 183.787 61.9336 181.473 61.8498C179.159 61.766 176.885 61.2182 174.786 60.239C174.236 56.9917 172.954 53.9122 171.036 51.2342L190.956 54.3318Z" fill="black"/>
<path d="M182.105 60.9736C191.642 60.9736 199.374 53.242 199.374 43.7045C199.374 34.1671 191.642 26.4355 182.105 26.4355C172.567 26.4355 164.836 34.1671 164.836 43.7045C164.836 53.242 172.567 60.9736 182.105 60.9736Z" fill="#FCBBBB"/>
<path opacity="0.1" d="M204.241 164.13L204.047 164.165C185.484 167.98 162.191 148.636 162.191 148.636C162.817 147.583 163.356 146.48 163.801 145.338C164.448 144.327 164.847 143.763 164.847 143.763L203.923 159.269L204.023 160.815L204.241 164.13Z" fill="black"/>
<path d="M199.368 74.2577C199.368 74.2577 174.575 59.2045 166.605 65.3998L155.537 79.5653C155.537 79.5653 148.454 81.7813 149.783 95.9468L144.493 121.627L160.427 125.612C160.427 125.612 169.726 134.464 162.191 147.307C162.191 147.307 185.655 166.786 204.252 162.801L202.912 142.011C202.912 142.011 198.927 130.497 206.01 119.875C213.093 109.254 206.451 99.068 199.815 95.0828C199.809 95.0652 196.711 78.2369 199.368 74.2577Z" fill="#E56D6E"/>
<path d="M200.697 164.57C200.697 164.57 209.995 166.334 214.421 173.428C215.699 175.558 217.259 177.506 219.059 179.218C219.459 179.588 219.767 180.045 219.961 180.555C220.154 181.064 220.227 181.611 220.173 182.153C220.12 182.695 219.942 183.217 219.652 183.679C219.363 184.141 218.971 184.529 218.506 184.814C214.98 186.93 209.266 188.229 202.048 182.28C189.629 172.1 200.697 164.57 200.697 164.57Z" fill="#FCBBBB"/>
<path opacity="0.1" d="M186.971 82.6454C186.971 82.6454 178.119 81.7579 175.903 104.781C173.687 127.805 170.149 133.112 170.149 133.112C170.149 133.112 167.933 145.068 173.247 152.151C178.56 159.234 188.741 174.34 188.741 174.34C188.741 174.34 199.814 177.443 202.024 166.369L188.3 140.695C188.3 140.695 186.09 131.837 191.397 125.642C196.705 119.447 200.696 78.237 186.971 82.6454Z" fill="black"/>
<path d="M187.859 81.3405C187.859 81.3405 179.001 80.453 176.791 103.476C174.581 126.5 171.037 131.808 171.037 131.808C171.037 131.808 168.821 143.775 174.134 150.828C179.448 157.882 189.628 172.964 189.628 172.964C189.628 172.964 200.696 176.068 202.912 165L189.188 139.319C189.188 139.319 186.972 130.462 192.285 124.266C197.599 118.071 201.572 76.9086 187.859 81.3405Z" fill="#E56D6E"/>
<path opacity="0.1" d="M195.165 97.9276C195.165 97.9276 196.047 111.652 192.062 119.182C188.077 126.711 188.077 136.445 192.062 141.759" fill="black"/>
<path opacity="0.1" d="M197.375 81.1171C197.375 81.1171 193.848 77.5904 183.65 77.1319C173.452 76.6735 169.044 73.6052 169.044 73.6052" fill="black"/>
<path d="M172.306 20.5107C169.614 20.8398 166.54 21.7627 165.57 24.2901C165.32 25.2581 165.124 26.2393 164.982 27.229C163.977 31.0966 159.622 32.8953 156.936 35.8577C154.584 38.4616 153.521 41.9942 152.751 45.4386C150.55 55.3062 150.025 65.4737 151.199 75.5154C152.063 82.8568 153.826 90.0866 154.32 97.4574C154.814 104.828 153.914 112.593 149.882 118.788C148.119 121.457 145.862 123.796 144.633 126.729C147.173 128.792 150.676 129.08 153.944 129.192C157.753 129.321 161.561 129.321 165.37 129.192C167.369 129.121 169.455 128.998 171.178 127.981C172.454 127.168 173.502 126.043 174.222 124.713C176.403 121.016 176.95 116.572 176.861 112.281C176.773 107.99 176.086 103.729 176.009 99.4382C175.968 97.0871 176.15 94.6184 177.49 92.7081C178.466 91.3209 179.941 90.3922 181.205 89.2754C185.943 85.0728 187.571 78.3368 187.73 72.0063C187.888 65.6759 186.842 59.3337 187.377 53.0268C187.588 50.5581 188.511 47.5898 190.939 47.1137C191.709 46.9609 192.526 47.1137 193.255 46.814C195.206 46.0675 195.018 43.3225 195.571 41.3064C196.194 39.0435 198.122 37.3036 198.668 35.023C199.944 29.6625 193.125 23.2674 188.676 21.4041C184.027 19.4644 177.102 19.917 172.306 20.5107Z" fill="#35323E"/>
<path d="M622.757 96.044H620.999V47.8775C620.999 44.2166 620.278 40.5915 618.877 37.2092C617.476 33.827 615.423 30.7538 612.834 28.1651C610.245 25.5765 607.172 23.523 603.79 22.1221C600.408 20.7211 596.783 20 593.122 20H491.074C487.413 20 483.788 20.7211 480.406 22.122C477.024 23.523 473.951 25.5764 471.362 28.1651C468.773 30.7537 466.72 33.8269 465.319 37.2092C463.918 40.5914 463.197 44.2165 463.197 47.8774V312.123C463.197 319.516 466.134 326.607 471.362 331.835C476.59 337.063 483.681 340 491.074 340H593.121C600.515 340 607.606 337.063 612.834 331.835C618.062 326.607 620.999 319.516 620.999 312.123V130.33H622.757L622.757 96.044Z" fill="#3F3D56"/>
<path d="M594.246 27.2526H580.926C581.538 28.7545 581.772 30.3839 581.607 31.9974C581.441 33.6109 580.881 35.1589 579.977 36.5051C579.072 37.8514 577.85 38.9544 576.419 39.7171C574.987 40.4799 573.39 40.8789 571.768 40.879H513.307C511.685 40.8789 510.088 40.4799 508.656 39.7172C507.225 38.9544 506.003 37.8514 505.098 36.5052C504.193 35.159 503.634 33.6109 503.468 31.9974C503.303 30.3839 503.537 28.7545 504.149 27.2526H491.708C486.186 27.2526 480.891 29.446 476.987 33.3502C473.083 37.2545 470.889 42.5497 470.889 48.0712V311.928C470.889 314.662 471.428 317.37 472.474 319.895C473.52 322.421 475.054 324.716 476.987 326.649C478.92 328.583 481.215 330.116 483.741 331.162C486.267 332.209 488.974 332.747 491.708 332.747H594.246C596.98 332.747 599.687 332.209 602.213 331.162C604.739 330.116 607.034 328.583 608.967 326.649C610.901 324.716 612.434 322.421 613.48 319.895C614.526 317.37 615.065 314.662 615.065 311.929V48.0712C615.065 45.3372 614.526 42.6301 613.48 40.1042C612.434 37.5784 610.901 35.2834 608.967 33.3502C607.034 31.417 604.739 29.8836 602.213 28.8373C599.687 27.7911 596.98 27.2526 594.246 27.2526Z" fill="white"/>
<path d="M602.842 247.06H483.028C482.44 247.059 481.876 246.825 481.46 246.409C481.044 245.993 480.81 245.429 480.809 244.841V189.826C480.81 189.238 481.044 188.674 481.46 188.258C481.876 187.842 482.44 187.608 483.028 187.607H602.842C603.43 187.608 603.994 187.842 604.41 188.258C604.826 188.674 605.06 189.238 605.061 189.826V244.841C605.06 245.429 604.826 245.993 604.41 246.409C603.994 246.825 603.43 247.059 602.842 247.06ZM483.028 188.495C482.675 188.495 482.337 188.636 482.087 188.885C481.838 189.135 481.697 189.473 481.697 189.826V244.841C481.697 245.194 481.838 245.532 482.087 245.782C482.337 246.031 482.675 246.172 483.028 246.172H602.842C603.195 246.172 603.533 246.031 603.783 245.782C604.032 245.532 604.173 245.194 604.173 244.841V189.826C604.173 189.473 604.032 189.135 603.783 188.885C603.533 188.636 603.195 188.495 602.842 188.495L483.028 188.495Z" fill="#E6E6E6"/>
<path d="M500.758 216.135C505.75 216.135 509.796 212.088 509.796 207.096C509.796 202.105 505.75 198.058 500.758 198.058C495.766 198.058 491.72 202.105 491.72 207.096C491.72 212.088 495.766 216.135 500.758 216.135Z" fill="#EA9959"/>
<path d="M521.632 201.071C521.233 201.071 520.849 201.23 520.567 201.512C520.284 201.795 520.126 202.178 520.126 202.577C520.126 202.977 520.284 203.36 520.567 203.642C520.849 203.925 521.233 204.084 521.632 204.084H592.646C593.045 204.083 593.427 203.924 593.709 203.641C593.991 203.359 594.149 202.976 594.149 202.577C594.149 202.178 593.991 201.795 593.709 201.513C593.427 201.231 593.045 201.072 592.646 201.071H521.632Z" fill="#E6E6E6"/>
<path d="M521.631 210.109C521.433 210.109 521.237 210.147 521.054 210.223C520.871 210.299 520.705 210.409 520.564 210.549C520.424 210.689 520.313 210.855 520.237 211.038C520.161 211.221 520.122 211.417 520.122 211.615C520.122 211.813 520.161 212.01 520.237 212.192C520.313 212.375 520.424 212.542 520.564 212.681C520.705 212.821 520.871 212.932 521.054 213.008C521.237 213.083 521.433 213.122 521.631 213.122H552.189C552.588 213.122 552.971 212.963 553.254 212.681C553.536 212.398 553.695 212.015 553.695 211.615C553.695 211.216 553.536 210.833 553.254 210.55C552.971 210.268 552.588 210.109 552.189 210.109H521.631Z" fill="#E6E6E6"/>
<path d="M493.825 224.559C492.679 224.559 491.747 225.234 491.747 226.065C491.747 226.895 492.679 227.571 493.825 227.571H591.802C592.948 227.571 593.88 226.895 593.88 226.065C593.88 225.234 592.948 224.559 591.802 224.559H493.825Z" fill="#E6E6E6"/>
<path d="M493.825 233.596C492.679 233.596 491.747 234.272 491.747 235.103C491.747 235.933 492.679 236.609 493.825 236.609H591.802C592.948 236.609 593.88 235.933 593.88 235.103C593.88 234.272 592.948 233.596 591.802 233.596H493.825Z" fill="#E6E6E6"/>
<path d="M602.842 129.465H483.028C482.44 129.464 481.876 129.23 481.46 128.814C481.044 128.399 480.81 127.835 480.809 127.246V97.5257C480.81 96.9375 481.044 96.3735 481.46 95.9576C481.876 95.5416 482.44 95.3076 483.028 95.3069H602.842C603.43 95.3076 603.994 95.5416 604.41 95.9576C604.826 96.3735 605.06 96.9375 605.061 97.5257V127.246C605.06 127.835 604.826 128.399 604.41 128.814C603.994 129.23 603.43 129.464 602.842 129.465ZM483.028 96.1944C482.675 96.1948 482.337 96.3352 482.087 96.5848C481.838 96.8344 481.697 97.1728 481.697 97.5257V127.246C481.697 127.599 481.838 127.938 482.087 128.187C482.337 128.437 482.675 128.577 483.028 128.578H602.842C603.195 128.577 603.533 128.437 603.783 128.187C604.032 127.938 604.173 127.599 604.173 127.246V97.5257C604.173 97.1728 604.032 96.8344 603.783 96.5848C603.533 96.3352 603.195 96.1948 602.842 96.1944H483.028Z" fill="#E6E6E6"/>
<path d="M501.645 120.284C506.637 120.284 510.683 116.237 510.683 111.245C510.683 106.254 506.637 102.207 501.645 102.207C496.654 102.207 492.607 106.254 492.607 111.245C492.607 116.237 496.654 120.284 501.645 120.284Z" fill="#EA9959"/>
<path d="M522.519 105.22C522.12 105.221 521.737 105.38 521.455 105.662C521.174 105.945 521.015 106.328 521.015 106.727C521.015 107.126 521.174 107.509 521.455 107.791C521.737 108.073 522.12 108.232 522.519 108.233H593.533C593.731 108.233 593.927 108.195 594.11 108.119C594.293 108.044 594.459 107.933 594.599 107.793C594.739 107.653 594.851 107.487 594.926 107.304C595.002 107.121 595.041 106.925 595.041 106.727C595.041 106.529 595.002 106.333 594.926 106.15C594.851 105.967 594.739 105.801 594.599 105.661C594.459 105.521 594.293 105.41 594.11 105.334C593.927 105.259 593.731 105.22 593.533 105.22H522.519Z" fill="#E6E6E6"/>
<path d="M522.519 114.258C522.12 114.259 521.737 114.418 521.455 114.7C521.174 114.983 521.015 115.366 521.015 115.765C521.015 116.164 521.174 116.546 521.455 116.829C521.737 117.111 522.12 117.27 522.519 117.271H553.076C553.274 117.271 553.471 117.233 553.654 117.157C553.837 117.081 554.003 116.971 554.143 116.831C554.283 116.691 554.394 116.525 554.47 116.342C554.546 116.159 554.585 115.963 554.585 115.765C554.585 115.567 554.546 115.37 554.47 115.188C554.394 115.005 554.283 114.838 554.143 114.699C554.003 114.559 553.837 114.448 553.654 114.372C553.471 114.297 553.274 114.258 553.076 114.258H522.519Z" fill="#E6E6E6"/>
<path d="M602.843 83.7369H483.03C482.441 83.7362 481.878 83.5022 481.462 83.0862C481.046 82.6703 480.812 82.1063 480.811 81.5181V51.7974C480.812 51.2092 481.046 50.6452 481.462 50.2293C481.878 49.8133 482.441 49.5794 483.03 49.5787H602.843C603.432 49.5794 603.996 49.8133 604.411 50.2293C604.827 50.6452 605.061 51.2092 605.062 51.7974V81.5181C605.061 82.1063 604.827 82.6703 604.411 83.0862C603.996 83.5022 603.432 83.7362 602.843 83.7369ZM483.03 50.4662C482.677 50.4666 482.338 50.6069 482.089 50.8565C481.839 51.1061 481.699 51.4445 481.698 51.7974V81.5181C481.699 81.871 481.839 82.2094 482.089 82.459C482.338 82.7086 482.677 82.849 483.03 82.8493H602.843C603.196 82.849 603.535 82.7086 603.784 82.459C604.034 82.2094 604.174 81.871 604.175 81.5181V51.7974C604.174 51.4445 604.034 51.1061 603.784 50.8565C603.535 50.6069 603.196 50.4666 602.843 50.4662H483.03Z" fill="#E6E6E6"/>
<path d="M501.645 74.5552C506.637 74.5552 510.683 70.5087 510.683 65.5171C510.683 60.5255 506.637 56.4791 501.645 56.4791C496.654 56.4791 492.607 60.5255 492.607 65.5171C492.607 70.5087 496.654 74.5552 501.645 74.5552Z" fill="#EA9959"/>
<path d="M522.519 59.4921C522.12 59.4927 521.737 59.6517 521.455 59.9341C521.174 60.2166 521.015 60.5993 521.015 60.9984C521.015 61.3975 521.174 61.7803 521.455 62.0627C521.737 62.3451 522.12 62.5041 522.519 62.5048H593.533C593.731 62.5051 593.927 62.4664 594.11 62.3908C594.293 62.3153 594.459 62.2044 594.599 62.0644C594.739 61.9245 594.851 61.7584 594.926 61.5754C595.002 61.3925 595.041 61.1964 595.041 60.9984C595.041 60.8004 595.002 60.6043 594.926 60.4214C594.851 60.2385 594.739 60.0723 594.599 59.9324C594.459 59.7925 594.293 59.6816 594.11 59.606C593.927 59.5305 593.731 59.4917 593.533 59.4921H522.519Z" fill="#E6E6E6"/>
<path d="M522.519 68.5299C522.12 68.5306 521.737 68.6896 521.455 68.972C521.174 69.2544 521.015 69.6372 521.015 70.0363C521.015 70.4353 521.174 70.8181 521.455 71.1005C521.737 71.3829 522.12 71.5419 522.519 71.5426H553.076C553.274 71.5429 553.471 71.5042 553.654 71.4287C553.837 71.3531 554.003 71.2422 554.143 71.1023C554.283 70.9624 554.394 70.7962 554.47 70.6133C554.546 70.4304 554.585 70.2343 554.585 70.0363C554.585 69.8382 554.546 69.6421 554.47 69.4592C554.394 69.2763 554.283 69.1101 554.143 68.9702C554.003 68.8303 553.837 68.7194 553.654 68.6439C553.471 68.5683 553.274 68.5296 553.076 68.5299H522.519Z" fill="#E6E6E6"/>
<rect x="480.975" y="140.889" width="56.8889" height="33.7778" rx="4" fill="#9ECCD6"/>
<path d="M496.204 155.306L484.975 174.667H533.419L519.137 149.486C517.988 147.46 515.07 147.459 513.919 149.484L505.419 164.444L499.626 155.244C498.825 153.971 496.958 154.005 496.204 155.306Z" fill="#99C661"/>
<rect x="548.53" y="140.889" width="56.8889" height="33.7778" rx="4" fill="#9ECCD6"/>
<path d="M563.759 155.306L552.53 174.667H600.975L586.693 149.486C585.544 147.46 582.625 147.459 581.475 149.484L572.975 164.444L567.182 155.244C566.38 153.971 564.514 154.005 563.759 155.306Z" fill="#99C661"/>
<path d="M601.955 318.947H548.704C548.116 318.947 547.552 318.713 547.136 318.297C546.72 317.881 546.486 317.317 546.485 316.729V261.27C546.486 260.682 546.72 260.118 547.136 259.702C547.552 259.286 548.116 259.052 548.704 259.052H601.955C602.543 259.052 603.107 259.286 603.523 259.702C603.939 260.118 604.173 260.682 604.174 261.27V316.729C604.173 317.317 603.939 317.881 603.523 318.297C603.107 318.713 602.543 318.947 601.955 318.947ZM548.704 259.939C548.351 259.94 548.013 260.08 547.763 260.329C547.514 260.579 547.373 260.917 547.373 261.27V316.729C547.373 317.082 547.514 317.42 547.763 317.67C548.013 317.919 548.351 318.06 548.704 318.06H601.955C602.308 318.06 602.646 317.919 602.896 317.67C603.145 317.42 603.286 317.082 603.286 316.729V261.27C603.286 260.917 603.145 260.579 602.896 260.329C602.646 260.08 602.308 259.94 601.955 259.939H548.704Z" fill="#E6E6E6"/>
<path d="M590.608 307.511C591.008 307.511 591.391 307.352 591.674 307.07C591.956 306.787 592.115 306.404 592.115 306.005C592.115 305.605 591.956 305.222 591.674 304.94C591.391 304.657 591.008 304.498 590.608 304.498H560.051C559.652 304.499 559.269 304.658 558.988 304.94C558.706 305.223 558.547 305.606 558.547 306.005C558.547 306.404 558.706 306.787 558.988 307.069C559.269 307.351 559.652 307.51 560.051 307.511H590.608Z" fill="#E6E6E6"/>
<path d="M590.608 298.636C591.007 298.635 591.39 298.476 591.672 298.194C591.954 297.912 592.112 297.529 592.112 297.13C592.112 296.731 591.954 296.348 591.672 296.065C591.39 295.783 591.007 295.624 590.608 295.623H560.051C559.652 295.624 559.269 295.783 558.988 296.065C558.706 296.348 558.547 296.731 558.547 297.13C558.547 297.529 558.706 297.912 558.988 298.194C559.269 298.476 559.652 298.635 560.051 298.636H590.608Z" fill="#E6E6E6"/>
<path d="M575.53 288.655C580.522 288.655 584.568 284.608 584.568 279.617C584.568 274.625 580.522 270.579 575.53 270.579C570.539 270.579 566.492 274.625 566.492 279.617C566.492 284.608 570.539 288.655 575.53 288.655Z" fill="#EA9959"/>
<path d="M536.44 318.947H483.19C482.602 318.947 482.038 318.713 481.622 318.297C481.206 317.881 480.972 317.317 480.971 316.729V261.27C480.972 260.682 481.206 260.118 481.622 259.702C482.038 259.286 482.602 259.052 483.19 259.052H536.44C537.029 259.052 537.593 259.286 538.009 259.702C538.425 260.118 538.659 260.682 538.659 261.27V316.729C538.659 317.317 538.425 317.881 538.009 318.297C537.593 318.713 537.029 318.947 536.44 318.947ZM483.19 259.939C482.837 259.94 482.499 260.08 482.249 260.329C481.999 260.579 481.859 260.917 481.859 261.27V316.729C481.859 317.082 481.999 317.42 482.249 317.67C482.499 317.919 482.837 318.06 483.19 318.06H536.44C536.793 318.06 537.132 317.919 537.381 317.67C537.631 317.42 537.771 317.082 537.772 316.729V261.27C537.771 260.917 537.631 260.579 537.381 260.329C537.132 260.08 536.793 259.94 536.44 259.939H483.19Z" fill="#E6E6E6"/>
<path d="M525.094 307.511C525.493 307.511 525.876 307.352 526.159 307.07C526.441 306.787 526.6 306.404 526.6 306.005C526.6 305.605 526.441 305.222 526.159 304.94C525.876 304.657 525.493 304.498 525.094 304.498H494.536C494.137 304.499 493.755 304.658 493.473 304.94C493.191 305.223 493.033 305.606 493.033 306.005C493.033 306.404 493.191 306.787 493.473 307.069C493.755 307.351 494.137 307.51 494.536 307.511H525.094Z" fill="#E6E6E6"/>
<path d="M525.094 298.636C525.493 298.635 525.875 298.476 526.157 298.194C526.439 297.912 526.598 297.529 526.598 297.13C526.598 296.731 526.439 296.348 526.157 296.065C525.875 295.783 525.493 295.624 525.094 295.623H494.536C494.137 295.624 493.755 295.783 493.473 296.065C493.191 296.348 493.033 296.731 493.033 297.13C493.033 297.529 493.191 297.912 493.473 298.194C493.755 298.476 494.137 298.635 494.536 298.636H525.094Z" fill="#E6E6E6"/>
<path d="M510.016 288.655C515.007 288.655 519.054 284.608 519.054 279.617C519.054 274.625 515.007 270.579 510.016 270.579C505.024 270.579 500.978 274.625 500.978 279.617C500.978 284.608 505.024 288.655 510.016 288.655Z" fill="#EA9959"/>
</svg>
