<svg width="221" height="64" viewBox="0 0 221 64" fill="none" xmlns="http://www.w3.org/2000/svg">
<path d="M22.4902 64C22.4484 63.9582 22.4065 63.9163 22.3647 63.8745C21.6118 62.9124 16.8431 56.9307 11.949 49.2758C10.485 46.8497 9.56471 44.9255 9.73203 44.4235C10.1922 43.1268 18.6837 42.4575 21.2771 43.5869C22.0719 43.9216 22.0301 44.4235 22.0301 44.6745C22.0301 45.8458 21.9882 48.983 21.9882 48.983C21.9882 49.6523 22.532 50.1543 23.1595 50.1543C23.8288 50.1543 24.3307 49.6105 24.3307 48.983V41.1608C24.3307 40.4915 23.5778 40.3242 23.4523 40.2824C22.0719 40.2824 19.3111 40.2824 16.3412 40.2824C9.77386 40.2824 8.30981 40.5333 7.22223 39.8222C4.83791 38.2745 0.864056 27.6497 0.780396 21.668C0.654906 13.2183 5.63268 5.93987 12.702 2.30065C15.6301 0.836601 18.9346 0 22.4484 0C33.5752 0 42.7778 8.40784 43.9909 19.2418C43.9909 19.2418 43.9909 19.2418 43.9909 19.2837C44.2 21.919 29.8105 22.4627 26.966 21.7098C26.5477 21.5843 26.4222 21.166 26.4222 20.9569C26.4222 18.949 26.4222 13.3856 26.4222 13.3856C26.4222 12.7163 25.8784 12.2144 25.251 12.2144C24.5817 12.2144 24.0797 12.7582 24.0797 13.3856L24.1216 23.6758C24.1216 24.3451 24.7072 24.5124 24.8327 24.5124C26.4641 24.5124 30.2288 24.5124 33.7843 24.5124C38.5529 24.5124 40.5608 25.0562 41.8994 26.0601C42.7778 26.7294 43.1124 28.0261 42.8196 29.6993C40.1007 44.6745 23.1177 63.2471 22.4902 64ZM68.5033 29.0719C72.7699 30.9124 75.4471 32.9621 75.4471 37.3961C75.4471 41.9556 71.9752 44.9255 66.6628 44.9255C62.3124 44.9255 58.8405 42.9595 57.1255 39.5294L56.8327 38.9856L61.9359 36.0157L62.2706 36.5595C63.4 38.4418 64.6967 39.2366 66.5791 39.2366C68.1686 39.2366 69.2562 38.5255 69.2562 37.4797C69.2562 36.3085 68.4614 35.8484 66.0771 34.8026L64.7804 34.3007C61.5176 32.9203 58.4641 30.9542 58.4641 26.2693C58.4641 22.0444 61.685 19.1163 66.3281 19.1163C69.8418 19.1163 72.2262 20.4549 73.8994 23.383L74.1922 23.9268L69.2562 27.1059L68.9216 26.4784C68.085 25.0144 67.332 24.7216 66.3281 24.7216C65.2824 24.7216 64.6131 25.3072 64.6131 26.1856C64.6131 27.1895 65.115 27.6497 67.2484 28.5699L68.5033 29.0719ZM104.561 29.9503L108.158 19.9111H114.349L105.188 45.3438H103.808L98.2444 33.4222C97.9935 32.8784 97.7007 32.2092 97.4915 31.5817C97.2405 32.2092 96.9895 32.8784 96.7386 33.4222L90.966 45.3438H89.5856L80.2994 19.9111H86.9085L90.5477 29.9503C90.7987 30.5778 91.0078 31.3725 91.217 32.0837C91.468 31.3307 91.7608 30.5359 92.0536 29.8667L96.8222 19.702H98.1608L103.013 29.8667C103.306 30.5359 103.641 31.3307 103.85 32.0837C104.101 31.3307 104.31 30.5778 104.561 29.9503ZM121.544 44.5909V19.3673H127.776V44.5909H121.544ZM148.19 36.1412V30.4941H159.776V41.7882L159.525 41.9974C158.187 43.085 154.673 44.9255 149.946 44.9255C141.915 44.9255 136.31 39.6131 136.31 32C136.31 24.5124 141.706 19.1163 149.152 19.1163C153.251 19.1163 156.263 20.2876 158.312 22.6301L158.731 23.0902L154.464 27.315L154.004 26.8549C152.833 25.6418 151.578 24.8889 149.152 24.8889C145.345 24.8889 142.668 27.817 142.668 32.0418C142.668 36.434 145.512 39.2784 149.905 39.2784C151.369 39.2784 152.875 39.0275 153.92 38.6092V36.183H148.19V36.1412ZM179.771 36.1412V30.4941H191.358V41.7882L191.107 41.9974C189.769 43.085 186.255 44.9255 181.528 44.9255C173.497 44.9255 167.892 39.6131 167.892 32C167.892 24.5124 173.288 19.1163 180.733 19.1163C184.833 19.1163 187.844 20.2876 189.894 22.6301L190.312 23.0902L186.088 27.315L185.627 26.8549C184.456 25.6418 183.201 24.8889 180.775 24.8889C176.969 24.8889 174.292 27.817 174.292 32.0418C174.292 36.434 177.136 39.2784 181.528 39.2784C182.992 39.2784 184.498 39.0275 185.544 38.6092V36.183H179.771V36.1412ZM214.156 19.3673H220.681L211.729 36.1412V44.5909H205.455V36.5177L195.918 19.3673H202.861L207.254 27.3987C207.714 28.2771 208.216 29.4484 208.592 30.3686C208.969 29.4484 209.429 28.2771 209.889 27.3987L214.156 19.3673Z" fill="#F47C2A"/>
</svg>
