<svg width="24" height="25" viewBox="0 0 24 25" fill="none" xmlns="http://www.w3.org/2000/svg">
<path d="M7.55544 22.9717H4.37217C3.80934 22.9717 3.26956 22.7482 2.87157 22.3502C2.47359 21.9522 2.25 21.4124 2.25 20.8496V13.422C2.25 12.8591 2.47359 12.3193 2.87157 11.9214C3.26956 11.5234 3.80934 11.2998 4.37217 11.2998H7.55544M14.983 9.17761V4.93326C14.983 4.08901 14.6477 3.27933 14.0507 2.68236C13.4537 2.08538 12.644 1.75 11.7998 1.75L7.55544 11.2998V22.9717H19.5245C20.0363 22.9775 20.5329 22.7982 20.9229 22.4667C21.3129 22.1352 21.5699 21.6739 21.6467 21.1679L23.111 11.6181C23.1571 11.314 23.1366 11.0034 23.0509 10.708C22.9651 10.4125 22.8161 10.1393 22.6142 9.90712C22.4124 9.67498 22.1624 9.4895 21.8818 9.36353C21.6011 9.23757 21.2964 9.17413 20.9888 9.17761H14.983Z" stroke="black" stroke-width="1.6" stroke-linecap="round" stroke-linejoin="round"/>
</svg>
