<svg width="32" height="33" viewBox="0 0 32 33" fill="none" xmlns="http://www.w3.org/2000/svg">
<path d="M16 32.996C11.7565 32.996 7.68687 31.3103 4.68629 28.3097C1.68571 25.3091 0 21.2395 0 16.996C0 12.7525 1.68571 8.68288 4.68629 5.68229C7.68687 2.68171 11.7565 0.996002 16 0.996002V0.996002C20.2435 0.996002 24.3131 2.68171 27.3137 5.68229C30.3143 8.68288 32 12.7525 32 16.996C32 21.2395 30.3143 25.3091 27.3137 28.3097C24.3131 31.3103 20.2435 32.996 16 32.996Z" fill="black"/>
<path d="M16.002 8.04301C18.918 8.04301 19.263 8.05301 20.415 8.10701C21.1081 8.11473 21.7946 8.24263 22.444 8.48502C22.9147 8.66646 23.3421 8.9445 23.6988 9.30119C24.0555 9.65789 24.3335 10.0853 24.515 10.556C24.7558 11.2058 24.8836 11.8921 24.893 12.585C24.944 13.737 24.957 14.085 24.957 16.998C24.957 19.911 24.947 20.259 24.893 21.411C24.8853 22.1041 24.7574 22.7906 24.515 23.44C24.3335 23.9107 24.0555 24.3381 23.6988 24.6948C23.3421 25.0515 22.9147 25.3296 22.444 25.511C21.7942 25.7518 21.1079 25.8797 20.415 25.889C19.263 25.94 18.915 25.953 16.002 25.953C13.089 25.953 12.741 25.943 11.589 25.889C10.8959 25.8813 10.2094 25.7534 9.55998 25.511C9.0893 25.3296 8.66186 25.0515 8.30516 24.6948C7.94847 24.3381 7.67043 23.9107 7.48898 23.44C7.24818 22.7902 7.12033 22.104 7.11098 21.411C7.05998 20.259 7.04698 19.911 7.04698 16.998C7.04698 14.085 7.05698 13.737 7.11098 12.585C7.11869 11.8919 7.24659 11.2054 7.48898 10.556C7.67043 10.0853 7.94847 9.65789 8.30516 9.30119C8.66186 8.9445 9.0893 8.66646 9.55998 8.48502C10.2098 8.24423 10.896 8.11638 11.589 8.10701C12.741 8.05301 13.089 8.04301 16.002 8.04301ZM16.002 6.07501C13.035 6.07501 12.664 6.08801 11.502 6.14201C10.5952 6.16063 9.69822 6.33273 8.84898 6.65102C8.1197 6.92255 7.45958 7.35215 6.91599 7.90901C6.36031 8.45533 5.93004 9.11592 5.65498 9.84502C5.33759 10.6945 5.16551 11.5914 5.14598 12.498C5.09198 13.663 5.07898 14.034 5.07898 16.998C5.07898 19.962 5.09198 20.336 5.14598 21.498C5.16459 22.4048 5.3367 23.3018 5.65498 24.151C5.93742 24.876 6.36785 25.5342 6.91881 26.0836C7.46977 26.633 8.12918 27.0616 8.85498 27.342C9.70447 27.6594 10.6013 27.8315 11.508 27.851C12.673 27.905 13.044 27.918 16.008 27.918C18.972 27.918 19.346 27.905 20.508 27.851C21.4147 27.8324 22.3117 27.6603 23.161 27.342C23.886 27.0596 24.5442 26.6291 25.0936 26.0782C25.643 25.5272 26.0716 24.8678 26.352 24.142C26.6694 23.2925 26.8414 22.3957 26.861 21.489C26.915 20.324 26.928 19.953 26.928 16.989C26.928 14.025 26.915 13.651 26.861 12.489C26.8423 11.5823 26.6703 10.6853 26.352 9.83601C26.0696 9.111 25.6391 8.45281 25.0882 7.9034C24.5372 7.35398 23.8778 6.92541 23.152 6.64502C22.3025 6.32762 21.4056 6.15555 20.499 6.13602C19.337 6.08502 18.966 6.07202 15.999 6.07202L16.002 6.07501Z" fill="white"/>
<path d="M16.002 11.388C14.8924 11.388 13.8078 11.717 12.8852 12.3335C11.9626 12.9499 11.2436 13.8261 10.819 14.8512C10.3944 15.8763 10.2833 17.0042 10.4998 18.0925C10.7162 19.1807 11.2505 20.1803 12.0351 20.9649C12.8197 21.7494 13.8193 22.2838 14.9075 22.5002C15.9957 22.7167 17.1237 22.6056 18.1488 22.181C19.1739 21.7564 20.0501 21.0373 20.6665 20.1148C21.2829 19.1922 21.612 18.1076 21.612 16.998C21.6117 15.5102 21.0206 14.0835 19.9685 13.0314C18.9165 11.9794 17.4897 11.3883 16.002 11.388ZM16.002 20.64C15.2816 20.64 14.5775 20.4264 13.9786 20.0262C13.3797 19.6261 12.9128 19.0572 12.6372 18.3918C12.3615 17.7263 12.2894 16.994 12.4299 16.2875C12.5705 15.581 12.9173 14.9321 13.4267 14.4227C13.936 13.9134 14.585 13.5665 15.2915 13.426C15.9979 13.2855 16.7302 13.3576 17.3957 13.6332C18.0612 13.9089 18.63 14.3757 19.0302 14.9746C19.4304 15.5736 19.644 16.2777 19.644 16.998C19.644 17.9639 19.2603 18.8903 18.5772 19.5733C17.8942 20.2563 16.9679 20.64 16.002 20.64Z" fill="white"/>
<path d="M21.833 12.479C22.5576 12.479 23.145 11.8916 23.145 11.167C23.145 10.4424 22.5576 9.85501 21.833 9.85501C21.1084 9.85501 20.521 10.4424 20.521 11.167C20.521 11.8916 21.1084 12.479 21.833 12.479Z" fill="white"/>
</svg>
