<svg width="32" height="32" viewBox="0 0 32 32" fill="none" xmlns="http://www.w3.org/2000/svg">
<path fill-rule="evenodd" clip-rule="evenodd" d="M32 16C32 24.8366 24.8366 32 16 32C7.16344 32 0 24.8366 0 16C0 7.16344 7.16344 0 16 0C24.8366 0 32 7.16344 32 16ZM17.4557 23.5403C16.1063 24.0938 14.6605 24.3739 13.202 24.364L13.204 24.368C11.0899 24.3735 9.02018 23.7614 7.24902 22.607C7.55711 22.6464 7.86744 22.6654 8.17802 22.664C9.93217 22.667 11.6366 22.0811 13.018 21C12.2051 20.9854 11.4172 20.7164 10.765 20.2309C10.1128 19.7453 9.62915 19.0676 9.38202 18.293C9.62399 18.3417 9.8702 18.3661 10.117 18.366C10.4636 18.3663 10.8087 18.3203 11.143 18.229C10.2608 18.0506 9.46749 17.5726 8.89755 16.876C8.32762 16.1794 8.01617 15.3071 8.01602 14.407V14.359C8.55527 14.6605 9.15948 14.8269 9.77702 14.844C8.95045 14.2949 8.36471 13.4509 8.13945 12.4845C7.91419 11.518 8.06641 10.502 8.56502 9.64402C9.54293 10.8484 10.7634 11.8333 12.1471 12.5349C13.5307 13.2365 15.0466 13.6389 16.596 13.716C16.5239 13.4253 16.4886 13.1266 16.491 12.827C16.4928 12.0466 16.7287 11.2847 17.1682 10.6398C17.6077 9.99492 18.2305 9.4967 18.9561 9.20958C19.6818 8.92246 20.4769 8.85965 21.2387 9.02927C22.0004 9.19889 22.6937 9.59313 23.229 10.161C24.1003 9.98745 24.9361 9.66795 25.701 9.21602C25.4119 10.1197 24.8027 10.8867 23.988 11.373C24.7602 11.2795 25.5143 11.0726 26.226 10.759C25.7014 11.542 25.0422 12.2259 24.279 12.779C24.287 12.9399 24.287 13.1089 24.287 13.2788V13.279C24.2969 14.7375 24.0168 16.1833 23.4633 17.5327C22.9097 18.882 22.0935 20.1079 21.0622 21.1392C20.0309 22.1705 18.805 22.9867 17.4557 23.5403Z" fill="black"/>
</svg>
