<svg width="34" height="33" viewBox="0 0 34 33" fill="none" xmlns="http://www.w3.org/2000/svg">
<path d="M33.195 17.1C33.1955 14.023 32.3142 11.0103 30.6556 8.41857C28.9969 5.82688 26.6303 3.76479 23.8359 2.47646C21.0416 1.18814 17.9366 0.727544 14.8886 1.14922C11.8407 1.5709 8.97734 2.85718 6.63774 4.85576C4.29815 6.85434 2.58027 9.48151 1.68752 12.4262C0.794772 15.3708 0.764552 18.5097 1.60044 21.471C2.43632 24.4323 4.1033 27.092 6.40399 29.1353C8.70467 31.1785 11.5427 32.5197 14.582 33V21.751H10.495V17.1H14.582V13.551C14.582 9.51699 16.982 7.28799 20.663 7.28799C21.869 7.30482 23.0722 7.40977 24.263 7.60199V11.563H22.235C21.8891 11.5172 21.5373 11.5498 21.2058 11.6583C20.8742 11.7669 20.5713 11.9487 20.3195 12.1902C20.0676 12.4318 19.8734 12.7268 19.7511 13.0536C19.6288 13.3804 19.5816 13.7305 19.613 14.078V17.1H24.078L23.364 21.753H19.613V33C23.3991 32.4005 26.847 30.4698 29.3367 27.5552C31.8264 24.6405 33.1945 20.9332 33.195 17.1Z" fill="black"/>
</svg>
