<svg width="103" height="104" viewBox="0 0 103 104" fill="none" xmlns="http://www.w3.org/2000/svg">
<path d="M51.2886 7.71131C26.7412 7.7012 6.85913 27.9347 6.85913 52.9082C6.85913 72.6566 19.2966 89.4437 36.6178 95.6087C38.9504 96.205 38.5931 94.5172 38.5931 93.3651V85.5324C25.1233 87.1394 24.5773 78.0636 23.674 76.5476C21.8476 73.3741 17.5298 72.5656 18.8202 71.0496C21.8873 69.4426 25.0141 71.4539 28.6371 76.9014C31.2576 80.8531 36.3696 80.186 38.9603 79.5291C39.5261 77.154 40.7371 75.0316 42.4047 73.3842C28.4485 70.8374 22.6318 62.1659 22.6318 51.8571C22.6318 46.8543 24.2498 42.2558 27.4261 38.5467C25.4012 32.4321 27.6147 27.1969 27.9125 26.4187C33.6796 25.8931 39.675 30.6231 40.1415 30.997C43.4172 30.0975 47.1593 29.6225 51.3482 29.6225C55.5569 29.6225 59.309 30.1177 62.6144 31.0273C63.736 30.1581 69.2947 26.0953 74.6548 26.5905C74.9427 27.3687 77.1066 32.4827 75.2007 38.5163C78.4168 42.2356 80.0546 46.8745 80.0546 51.8874C80.0546 62.2164 74.1982 70.898 60.2023 73.4044C61.4011 74.6048 62.353 76.0363 63.0023 77.6155C63.6516 79.1946 63.9854 80.8896 63.9842 82.6015V93.9715C64.0636 94.8811 63.9842 95.7805 65.4731 95.7805C83.0523 89.7469 95.7082 72.8385 95.7082 52.9183C95.7082 27.9347 75.8162 7.71131 51.2886 7.71131Z" fill="black"/>
</svg>
