<svg width="114" height="96" viewBox="0 0 114 96" fill="none" xmlns="http://www.w3.org/2000/svg">
<g clip-path="url(#clip0)">
<path d="M65.1346 46.2371L15.6865 3.2289C14.7888 2.38367 13.7215 1.7394 12.5554 1.33899C11.3894 0.938571 10.1514 0.791202 8.92395 0.906691C7.6965 1.02218 6.50774 1.39788 5.43681 2.00877C4.36589 2.61965 3.43737 3.45172 2.71308 4.44955C1.9888 5.44739 1.48537 6.5881 1.23632 7.79573C0.987265 9.00337 0.9983 10.2502 1.26869 11.4532C1.53908 12.6563 2.06262 13.7879 2.80446 14.7727C3.54629 15.7576 4.48939 16.5731 5.57096 17.1649L61.1894 51.6985L61.4417 51.8561C62.1867 52.3459 63.0957 52.5196 63.9688 52.3391C64.8419 52.1585 65.6075 51.6385 66.0972 50.8933C66.5869 50.1482 66.7606 49.2391 66.5801 48.3658C66.3995 47.4926 65.8796 46.7269 65.1346 46.2371Z" fill="url(#paint0_linear)"/>
<path d="M113.519 53.1111C113.434 50.9762 112.793 48.9006 111.66 47.0893C110.527 45.278 108.941 43.7937 107.059 42.7831C105.177 41.7726 103.063 41.2707 100.928 41.327C98.7924 41.3834 96.7086 41.9961 94.8823 43.1045L25.4472 82.633L25.3291 82.6964C24.5687 83.0101 23.8779 83.4714 23.2967 84.0536C22.7155 84.6359 22.2553 85.3275 21.9428 86.0885C21.6303 86.8496 21.4716 87.665 21.4759 88.4877C21.4802 89.3105 21.6475 90.1242 21.9679 90.8819C22.2884 91.6397 22.7558 92.3264 23.3431 92.9025C23.9304 93.4786 24.6259 93.9326 25.3897 94.2384C26.1534 94.5441 26.97 94.6955 27.7926 94.6839C28.6151 94.6722 29.4272 94.4977 30.1819 94.1704L105.834 64.9718L106.023 64.893C108.321 63.9231 110.269 62.2762 111.608 60.1714C112.947 58.0667 113.614 55.6039 113.518 53.1111H113.519Z" fill="url(#paint1_linear)"/>
<path d="M57.6006 51.2721C57.9881 50.5194 58.0774 49.6481 57.8505 48.8324C57.6236 48.0166 57.0974 47.3166 56.3769 46.8721C55.6564 46.4275 54.7947 46.2713 53.9641 46.4346C53.1334 46.5978 52.3949 47.0685 51.8962 47.7527L22.5836 84.953L22.5206 85.0794C22.0528 85.7897 21.7355 86.5884 21.5882 87.4262C21.4409 88.2639 21.4668 89.123 21.6643 89.9503C21.8619 90.7776 22.2268 91.5557 22.7366 92.2366C23.2464 92.9174 23.8902 93.4866 24.6285 93.9089C25.3667 94.3313 26.1836 94.5978 27.0288 94.6922C27.8741 94.7866 28.7296 94.7067 29.5428 94.4576C30.356 94.2085 31.1095 93.7954 31.7569 93.2437C32.4042 92.6921 32.9317 92.0136 33.3068 91.2502L57.3954 51.6038C57.4703 51.4972 57.539 51.3866 57.6006 51.2721Z" fill="url(#paint2_linear)"/>
<path d="M36.865 28.9398H77.121V69.202H36.865V28.9398Z" fill="black"/>
<path d="M51.9829 47.8313L50.9494 46.3321C51.3593 46.1795 51.7104 45.9012 51.9528 45.537C52.1951 45.1729 52.3161 44.7414 52.2987 44.3044C52.3117 44.0227 52.2666 43.7415 52.1661 43.4781C52.0657 43.2147 51.912 42.9748 51.7147 42.7734C51.423 42.5199 51.0836 42.3272 50.7164 42.2065C50.3492 42.0859 49.9616 42.0398 49.5764 42.071H46.4753H46.507V48.621H48.3218V46.632H49.1109L50.4364 48.621H51.65L51.6434 48.6364H53.5453L54.0108 47.453H56.5592L57.0246 48.6364H58.9736L56.1804 42.0234H54.4287L51.9829 47.8313ZM40.3367 61.6497H55.4309V64.1672H40.3367V61.6497ZM40.1711 39.5376L41.339 38.433C41.4514 38.6084 41.6035 38.7549 41.7831 38.8605C41.9627 38.9661 42.1646 39.0278 42.3725 39.0408C42.4836 39.0356 42.5924 39.0069 42.6917 38.9566C42.7909 38.9064 42.8784 38.8357 42.9485 38.7492C43.0185 38.6627 43.0695 38.5624 43.098 38.4549C43.1265 38.3473 43.132 38.235 43.1141 38.1252V33.9741H44.9209V38.1331C44.9464 38.4689 44.9021 38.8063 44.7907 39.1242C44.6794 39.442 44.5035 39.7333 44.274 39.9798C44.0335 40.2046 43.7504 40.3791 43.4415 40.4929C43.1326 40.6068 42.804 40.6577 42.4751 40.6426C42.0295 40.6646 41.5854 40.575 41.1831 40.3821C40.7808 40.1891 40.433 39.8989 40.1711 39.5376ZM45.3392 33.9741H50.6178V35.513H47.1381V36.5154H50.2941V37.9512H47.1381V38.9932H50.6654V40.5717H45.3392V33.9741ZM53.0006 35.5685H51.0441V33.99H56.7881V35.5685H54.8233V40.54H53.009V35.5685H53.0006ZM40.3367 42.071H43.698C44.0203 42.0454 44.3445 42.0839 44.652 42.1841C44.9594 42.2844 45.244 42.4444 45.4894 42.655C45.6265 42.7957 45.7342 42.9625 45.8061 43.1454C45.8779 43.3284 45.9125 43.5239 45.9077 43.7204C45.9142 44.039 45.8201 44.3516 45.6387 44.6136C45.4574 44.8757 45.198 45.0738 44.8975 45.1799C45.2666 45.2456 45.6002 45.4405 45.8387 45.7297C46.0772 46.0189 46.205 46.3836 46.1992 46.7584C46.1992 47.8868 45.2842 48.5655 43.7138 48.5655H40.3288V42.071H40.3367ZM44.1238 44.0991C44.1238 43.7362 43.8323 43.5389 43.3351 43.5389H42.1435V44.6911H43.2876C43.8402 44.6911 44.1555 44.5017 44.1555 44.1229L44.1243 44.0991H44.1238ZM43.4928 45.9613H42.1043V47.1689H43.5091C44.0688 47.1689 44.3766 46.9557 44.3766 46.569C44.3845 46.1744 44.108 45.9613 43.4928 45.9613ZM49.5055 45.2275C49.6236 45.2567 49.7469 45.2582 49.8657 45.2318C49.9844 45.2054 50.0955 45.1519 50.1902 45.0755C50.2849 44.9991 50.3607 44.9018 50.4116 44.7913C50.4624 44.6807 50.4871 44.5599 50.4835 44.4383C50.4874 44.3157 50.4627 44.1939 50.4114 44.0826C50.36 43.9712 50.2835 43.8734 50.1877 43.7968C50.092 43.7202 49.9798 43.667 49.8599 43.6413C49.74 43.6157 49.6158 43.6183 49.4971 43.649H48.298V45.2275H49.5055ZM56.0069 46.0326L55.2733 44.178L54.5313 46.0322H56.0065L56.0069 46.0326ZM59.1863 42.071H61.0015V48.6364H59.1868V42.071H59.1863ZM61.459 42.071H63.1553L65.8538 45.5433V42.071H67.6532V48.6364H66.0749L63.2658 45.0381V48.6364H61.467V42.071H61.459ZM67.7632 47.6582L68.7734 46.4506C69.3721 46.9501 70.1243 47.2288 70.9039 47.2398C71.4006 47.2398 71.6926 47.0742 71.6926 46.7901C71.6926 46.5061 71.4799 46.3717 70.5802 46.1506C69.1838 45.8353 68.1028 45.4407 68.1028 44.0991C68.1028 42.8835 69.0654 42 70.6436 42C71.6172 41.9616 72.573 42.269 73.3417 42.8677L72.4346 44.1542C71.9034 43.7535 71.2611 43.5273 70.5961 43.5067C70.154 43.5067 69.9413 43.6886 69.9413 43.9252C69.9413 44.2251 70.1702 44.3594 71.0853 44.5647C72.5843 44.8959 73.5232 45.3539 73.5232 46.6082C73.5232 47.9502 72.4663 48.747 70.8722 48.747C69.737 48.7803 68.6297 48.3925 67.7632 47.6582Z" fill="white"/>
</g>
<defs>
<linearGradient id="paint0_linear" x1="4.73251" y1="6.19469" x2="49.1755" y2="54.4021" gradientUnits="userSpaceOnUse">
<stop stop-color="#AA4A9B"/>
<stop offset="1" stop-color="#F05922"/>
</linearGradient>
<linearGradient id="paint1_linear" x1="23.2828" y1="95.2421" x2="69.3355" y2="22.0627" gradientUnits="userSpaceOnUse">
<stop stop-color="#FFE42E"/>
<stop offset="1" stop-color="#ED417C"/>
</linearGradient>
<linearGradient id="paint2_linear" x1="25.9691" y1="91.0524" x2="67.6555" y2="56.313" gradientUnits="userSpaceOnUse">
<stop stop-color="#FFE42E"/>
<stop offset="1" stop-color="#F05922"/>
</linearGradient>
<clipPath id="clip0">
<rect width="112.732" height="94.2516" fill="white" transform="translate(0.879395 0.848022)"/>
</clipPath>
</defs>
</svg>
