<svg width="104" height="95" viewBox="0 0 104 95" fill="none" xmlns="http://www.w3.org/2000/svg">
<g clip-path="url(#clip0)">
<path d="M52.2103 0.696167L23.0446 3.79509L0.464355 34.2562L52.2103 94.8105L103.956 34.2558L81.3765 3.79509L52.2103 0.696167Z" fill="#FDB300"/>
<path d="M0.464355 34.2566L52.2103 94.8108L21.4239 34.2566H0.464355Z" fill="#EB6C00"/>
<path d="M82.9965 34.2566L52.2104 94.8108L103.956 34.2566H82.9965Z" fill="#EB6C00"/>
<path d="M21.4241 34.2566L52.2105 94.8108L82.9969 34.2566H21.4241Z" fill="#FDAD00"/>
<path d="M23.0437 3.79509L21.4226 34.2562L52.2095 0.696167L23.0437 3.79509Z" fill="#FDD231"/>
<path d="M82.9965 34.2562L81.3762 3.79509L52.2104 0.696167L82.9965 34.2562Z" fill="#FDD231"/>
<path d="M82.996 34.2564H103.956L81.3757 3.79529L82.996 34.2564Z" fill="#FDAD00"/>
<path d="M0.464355 34.2564H21.4239L23.0446 3.79529L0.464355 34.2564Z" fill="#FDAD00"/>
<path d="M52.2105 0.696167L21.4241 34.2558H82.9969L52.2105 0.696167Z" fill="#FEEEB7"/>
</g>
<defs>
<clipPath id="clip0">
<rect width="103.492" height="94.2516" fill="white" transform="translate(0.464355 0.696167)"/>
</clipPath>
</defs>
</svg>
