<svg width="171" height="99" viewBox="0 0 171 99" fill="none" xmlns="http://www.w3.org/2000/svg">
<g clip-path="url(#clip0)">
<path d="M8.54335 98.0301C5.68235 98.0301 3.09961 97.7185 0.797119 95.4401L3.76372 92.5049C5.26329 93.9899 7.21712 94.197 8.61176 94.197C10.1824 94.197 11.8221 93.679 11.8221 92.3327C11.8221 91.4347 11.334 90.8135 9.90346 90.6742L7.04246 90.3981C3.76372 90.0871 1.74016 88.6718 1.74016 85.3567C1.74016 81.6268 5.05476 79.6245 8.75189 79.6245C11.5777 79.6245 13.9506 80.1076 15.6945 81.73L12.9039 84.5278C11.8573 83.5956 10.2521 83.3182 8.68215 83.3182C6.86846 83.3182 6.1014 84.1478 6.1014 85.0451C6.1014 85.7025 6.37967 86.4618 7.98483 86.5998L10.8452 86.8766C14.4387 87.221 16.2537 89.1208 16.2537 92.1592C16.2537 96.131 12.8349 98.0294 8.54335 98.0294V98.0301ZM24.17 97.823C20.4728 97.823 18.9029 95.233 18.9029 92.6772V83.7679H16.9836V80.3496H18.9029V75.0315H23.4381V80.3496H26.6478V83.7679H23.4381V92.4017C23.4381 93.4371 23.9262 94.0241 25.0081 94.0241H26.6478V97.823H24.1706H24.17ZM28.7324 97.823H33.2683V79.8309H28.7324V97.823ZM28.6627 76.7577H33.3035V73.0981H28.6627V76.7577ZM43.5176 98.0301C39.8889 98.0301 35.3889 96.0961 35.3889 88.8092C35.3889 81.5236 39.8889 79.6238 43.5176 79.6238C46.0287 79.6238 47.9127 80.3837 49.5179 82.0416L46.4477 85.0806C45.506 84.0795 44.7037 83.6647 43.5176 83.6647C42.4351 83.6647 41.5983 84.044 40.9356 84.8381C40.2382 85.7018 39.9241 86.9107 39.9241 88.8092C39.9241 90.709 40.2382 91.9521 40.9356 92.8159C41.5983 93.6106 42.4351 93.9899 43.5176 93.9899C44.7037 93.9899 45.506 93.5758 46.4477 92.574L49.5179 95.5781C47.9127 97.2353 46.0287 98.0301 43.5176 98.0301ZM62.0298 97.823L57.5643 90.329L55.6464 92.4701V97.823H51.1105V73.2362H55.6464V87.1868L61.6818 79.8309H67.1595L60.6697 87.0836L67.6476 97.823H62.0298ZM71.4337 90.2258C71.4337 92.5398 72.8635 94.2312 75.4118 94.2312C77.3994 94.2312 78.3764 93.679 79.5279 92.5398L82.284 95.1988C80.4358 97.0283 78.6566 98.0301 75.3772 98.0301C71.085 98.0301 66.9695 96.0961 66.9695 88.8092C66.9695 82.9389 70.1785 79.6238 74.8884 79.6238C79.9463 79.6238 82.8073 83.2847 82.8073 88.2222V90.2258H71.4344H71.4337ZM77.9228 85.2187C77.4353 84.1478 76.4239 83.3531 74.8878 83.3531C73.3523 83.3531 72.3415 84.1478 71.8528 85.2187C71.5738 85.8747 71.4689 86.3585 71.4344 87.1513H78.3425C78.3073 86.3585 78.203 85.8747 77.9228 85.2187ZM94.8351 84.7349C94.1378 84.044 93.5447 83.6647 92.4277 83.6647C91.0317 83.6647 89.4956 84.7013 89.4956 86.9804V97.823H84.9611V79.8309H89.3914V81.5585C90.264 80.5218 92.0093 79.6238 93.9625 79.6238C95.7423 79.6238 96.9975 80.0728 98.2533 81.3172L94.8351 84.7355V84.7349Z" fill="#4C2418"/>
<path d="M118.636 79.624C116.368 79.624 114.728 80.3149 113.194 81.9037C112.042 80.3497 110.402 79.624 108.38 79.624C106.705 79.624 105.03 80.28 103.844 81.4889V79.8317H99.4133V97.8232H103.948V86.9451C103.948 84.4931 105.553 83.6642 106.984 83.6642C108.414 83.6642 109.984 84.4924 109.984 86.9444V97.8225H114.52V86.8412C114.52 84.4924 116.159 83.6642 117.554 83.6642C118.985 83.6642 120.555 84.4924 120.555 86.9444V97.8225H125.091V86.3232C125.091 84.3544 124.567 82.6617 123.101 81.2122C122.09 80.211 120.45 79.6233 118.636 79.6233V79.624ZM138.347 90.7098C138.347 93.1611 136.743 93.9901 135.312 93.9901C133.882 93.9901 132.312 93.1611 132.312 90.7098V79.8317H127.776V91.3317C127.776 93.2985 128.162 94.9913 129.626 96.4421C130.637 97.4432 132.103 98.0303 133.917 98.0303C135.592 98.0303 137.266 97.4091 138.451 96.166V97.8225H142.883V79.8324H138.347V90.7105V90.7098ZM150.306 92.4019V73.2363H145.77V92.6773C145.77 95.2332 147.341 97.8232 151.073 97.8232H153.655V94.0243H151.91C150.76 94.0243 150.306 93.4721 150.306 92.4019ZM170.305 88.2223C170.305 83.2849 167.445 79.624 162.385 79.624C157.675 79.624 154.466 82.9397 154.466 88.8094C154.466 96.0963 158.584 98.0303 162.875 98.0303C166.154 98.0303 167.933 97.0284 169.782 95.199L167.026 92.5399C165.875 93.6791 164.898 94.2313 162.909 94.2313C160.362 94.2313 158.933 92.5399 158.933 90.226H170.305V88.2223ZM158.933 87.1521C158.967 86.3587 159.071 85.8749 159.35 85.2188C159.838 84.148 160.851 83.3532 162.385 83.3532C163.921 83.3532 164.932 84.148 165.421 85.2188C165.7 85.8749 165.805 86.3587 165.839 87.1515H158.933V87.1521Z" fill="#E26029"/>
<path d="M93.9755 67.9774C93.3367 68.2811 92.464 68.2134 91.5615 68.2404C90.7845 68.2608 89.6973 68.2772 89.2457 67.8815C89 67.6672 88.9289 67.2011 88.9137 66.9296C88.8937 66.6068 88.9768 66.2098 89.0452 65.8482C89.1275 65.4203 89.2138 64.8727 89.0452 64.6367C88.8506 64.3639 88.1559 64.4789 87.788 64.2751C87.3962 64.0608 87.2873 63.5435 87.1617 62.9663C87.1206 62.7836 87.0123 62.6179 86.993 62.4746C86.8841 61.5898 87.1843 60.4026 87.3895 59.4935C87.6087 58.5324 87.8923 57.6324 88.0523 56.7404C88.296 55.3948 88.3777 53.8743 88.2847 52.4826C88.2369 51.7582 88.1386 51.1883 88.2515 50.5828C88.3578 50.0162 88.5969 49.5442 88.7144 48.9789C88.751 48.7981 88.7231 48.5844 88.7476 48.3879C88.7722 48.215 88.8725 48.0723 88.8811 47.9304C88.9011 47.5511 88.7788 47.0922 88.7483 46.6196C88.6673 45.3561 88.7649 43.5753 88.8486 42.4913C88.8758 42.1159 89.0545 41.6847 88.7815 41.5099C87.4553 41.4901 86.2446 41.7465 85.008 41.9023C81.6808 42.323 77.4949 42.3782 74.2845 41.7386C73.981 41.6781 73.6769 41.6709 73.3926 41.6071C71.1154 41.0891 69.0221 40.1202 67.4023 38.8554C67.1526 38.6608 66.8558 38.4485 66.5755 38.2342C66.3006 38.0232 66.0063 37.73 65.7473 37.6117C64.451 37.0161 62.7329 37.7024 62.2076 38.5287C61.9964 38.8587 61.847 39.284 61.6444 39.6745C61.4512 40.0492 61.2818 40.4456 61.1151 40.8229C60.2598 42.7595 59.2948 44.6074 58.4348 46.5551C57.938 47.6779 57.3835 48.9296 57.0109 50.1904C56.2226 52.8672 56.9578 56.4525 57.5754 58.9702C57.6299 59.2003 57.7547 59.4303 57.8397 59.69C58.0343 60.2994 58.4514 61.1079 58.9315 61.5254C59.1819 61.7423 59.6076 61.8725 59.8905 62.1157C60.2465 62.4161 60.5101 63.0143 60.7837 63.5231C60.8986 63.7361 61.0587 63.9767 61.2141 64.2436C61.5435 64.8089 61.6564 65.3158 61.0155 65.6517C60.534 65.9048 59.8035 65.9698 59.1294 66.0112C58.8213 66.0888 58.9189 66.4984 58.7323 66.6995C58.6274 66.8139 58.1731 66.994 57.938 67.0611C57.0501 67.3155 55.5505 67.2984 54.8592 67.0611C54.5138 66.9401 54.12 66.6778 54.033 66.4057C53.8617 65.8699 54.2867 65.1928 53.9002 64.7669C53.7315 64.5841 53.3629 64.6157 53.0388 64.4737C52.5779 64.2699 52.1356 63.8426 51.9138 63.2924C51.3852 61.973 51.7133 59.9004 51.6502 58.2813C51.6322 57.8086 51.5678 57.3018 51.5512 56.7739C51.5193 55.8142 51.2909 54.8715 51.1873 53.9236C51.1348 53.4621 50.9814 53.0683 50.8898 52.6476C50.7377 51.9692 50.6228 51.2376 50.4262 50.55C50.2071 49.7953 50.2017 49.0604 50.4594 48.4214C50.5305 48.2426 50.7204 48.077 50.8227 47.8298C50.9754 47.4597 51.0306 47.0252 51.0206 46.6847C50.9084 46.4914 50.4441 46.6432 50.3253 46.4565C50.049 44.3858 49.7342 42.3007 49.5649 40.134C49.5091 39.4109 49.5064 38.6549 49.4314 37.9062C49.2879 36.4251 49.4081 34.9184 49.268 33.4847C49.1976 32.7853 49.0249 32.1286 48.9359 31.4521C48.6836 29.5523 48.1483 27.1135 48.5395 25.1309C48.7892 23.8582 49.2514 22.8281 49.9959 21.8881C50.5134 21.2272 51.0769 20.6027 51.682 20.0192C52.2952 19.4404 52.9483 18.9044 53.6365 18.4152C54.0835 18.0957 54.5577 17.7243 55.0591 17.4982C56.1681 16.996 57.6126 16.5496 59.1288 16.4812C60.6536 16.4162 62.3803 16.4076 63.8951 16.6791C65.3402 16.9381 66.7774 17.1892 68.1966 17.4653C69.5873 17.7348 70.9507 18.1095 72.2676 18.4474C72.437 18.4915 72.5831 18.5953 72.7637 18.6446C73.1828 18.7577 73.6583 18.782 74.1212 18.9056C75.3465 19.2363 76.9609 19.3986 78.4565 19.3986C80.0823 19.3986 81.5493 19.3546 82.8915 19.0371C83.0907 18.9911 83.2428 18.8872 83.4526 18.8083C83.6652 18.7275 83.9195 18.7439 84.1154 18.6769C84.2483 18.6308 84.3917 18.4875 84.5458 18.4152C85.2857 18.0729 85.9941 17.6676 86.663 17.2037C87.2089 16.8244 87.6565 16.5003 88.383 16.2203C88.7051 16.096 89.0305 15.9251 89.344 15.8272C90.03 15.6122 90.7725 15.4091 91.2978 15.0738C92.1213 14.5506 92.729 13.7992 93.4144 13.2069C94.1288 12.5901 94.8573 11.9896 95.5993 11.4057C97.1188 10.206 98.6642 9.10952 100.099 7.96571C100.849 7.36881 101.646 6.83202 102.483 6.36041C104.151 5.41775 105.841 4.3068 108.239 4.13325C109.178 4.06489 110.169 4.03662 111.12 4.16546C111.382 4.20162 111.741 4.34624 111.98 4.29628C112.243 4.24106 112.435 3.8473 112.608 3.54359C112.966 2.91581 113.219 2.49904 113.536 1.74109C113.73 1.27239 113.649 0.806974 114.131 0.824065C114.623 0.842471 114.539 2.08818 114.561 2.56083C114.588 3.13274 114.491 3.89989 114.594 4.29628C114.665 4.57106 115.034 4.97666 115.422 4.98454C115.687 4.98915 115.865 4.77156 116.116 4.62299C116.375 4.47377 116.615 4.38568 116.778 4.26407C117.171 3.97286 117.64 3.48838 118.035 3.08409C118.363 2.75081 118.876 1.9692 119.428 2.03691C120.367 2.14866 119.434 3.52059 119.227 3.96825C118.735 5.04174 118.261 5.84175 117.706 6.85147C117.476 7.2689 116.945 7.83029 116.943 8.26152C116.943 8.56391 117.207 8.76638 117.341 9.07994C117.406 9.22917 117.442 9.38956 117.508 9.53681C117.831 10.2796 118.076 11.3209 118.335 12.1906C118.552 12.9236 118.73 13.6966 118.997 14.4191C119.258 15.1244 119.634 15.7877 119.924 16.4812C119.999 16.6633 120.014 16.8862 120.09 17.0722C120.695 18.6019 121.279 20.3472 122.005 21.823C122.303 22.4206 122.706 23.166 122.704 24.0508C122.697 25.025 122.186 25.4905 121.742 26.2116C121.51 26.5929 121.167 27.1733 120.816 27.293C120.556 27.3811 120.254 27.2884 119.99 27.3245C119.618 27.3758 119.359 27.6138 119.029 27.6532C118.129 27.7558 117.323 27.0616 117.075 26.4082C116.994 26.1873 117.03 25.8862 116.979 25.6219C116.763 24.559 116.243 24.0449 115.49 23.3613C115.009 22.9274 114.64 22.5928 114.032 22.2799C113.188 21.846 112.246 21.5778 111.352 21.1006C111.022 20.9257 110.608 20.7515 110.325 20.8067C109.846 20.9001 109.368 21.6679 109.003 22.1504C106.665 25.1973 104.602 28.3283 102.316 31.3233C100.806 33.302 99.1915 35.3122 97.9802 37.5788C97.6767 38.1481 97.4954 38.8133 97.2523 39.4786C97.0172 40.1287 96.9036 40.8499 96.6566 41.5427C95.7773 44.0341 95.5037 47.0653 94.7067 49.6665C94.6217 49.9393 94.5899 50.2535 94.5062 50.55C94.1396 51.8778 93.7717 53.3997 93.3486 54.809C93.0325 55.8595 92.9369 57.2775 92.8837 58.675C92.8353 59.9694 92.7722 61.814 93.249 62.6363C93.5 63.0741 94.3979 63.2332 94.7393 63.6868C94.9731 64.0004 95.1311 64.6163 95.3669 65.0298C95.5296 65.3158 95.9978 65.9265 95.9626 66.3715C95.936 66.7054 95.6498 66.9401 95.3988 67.0604C95.1212 67.1958 94.7094 67.113 94.4411 67.2576C94.1422 67.4187 94.2844 67.7796 93.9755 67.9774Z" fill="#4C2418"/>
</g>
<defs>
<clipPath id="clip0">
<rect width="170.023" height="97.9478" fill="white" transform="translate(0.539551 0.46228)"/>
</clipPath>
</defs>
</svg>
